<?xml version="1.0" encoding="UTF-8" standalone="no"?>
<svg viewBox="0 0 100 100" version="1.1" xmlns="http://www.w3.org/2000/svg">
  <path d="m 63.920924,15.03503 c -0.148749,-0.166249 -5.508097,0.06562 -10.171823,5.127474 -4.663727,5.057475 -3.94623,10.858695 -3.841231,11.007444 0.105,0.14875 6.649966,0.380623 10.82807,-5.503722 4.178104,-5.884345 3.333733,-10.460571 3.184984,-10.631196 z M 78.4196,66.366644 C 78.209601,65.946646 68.247777,60.967922 69.175272,51.39547 70.102767,41.818644 76.50336,39.193657 76.603984,38.909284 76.704609,38.62491 73.992123,35.453052 71.117762,33.847435 a 16.152418,16.152418 0 0 0 -6.83809,-1.898741 c -0.472498,-0.01312 -2.113114,-0.415623 -5.486222,0.507498 -2.222489,0.608122 -7.231838,2.576862 -8.609956,2.655611 -1.382493,0.07875 -5.494972,-2.283738 -9.918075,-2.90936 -2.83061,-0.546872 -5.831845,0.573122 -7.979959,1.434993 -2.143739,0.857495 -6.221218,3.298733 -9.073704,9.786825 -2.852485,6.483717 -1.360618,16.756165 -0.293123,19.949898 1.067494,3.189359 2.734361,8.417457 5.569346,12.232438 2.519987,4.304978 5.86247,7.293088 7.258088,8.308083 1.395618,1.014995 5.333098,1.688741 8.063084,0.293123 2.196239,-1.347493 6.159969,-2.121864 7.726211,-2.064989 1.561867,0.05687 4.641851,0.673746 7.79621,2.358113 2.498113,0.86187 4.8606,0.503122 7.227463,-0.459373 2.366863,-0.96687 5.792471,-4.633101 9.791201,-12.066188 1.518117,-3.456233 2.209363,-5.324348 2.069364,-5.608722 z" />
</svg>
