<svg fill="none" height="100" viewBox="0 0 100 100" width="100" xmlns="http://www.w3.org/2000/svg"><path d="m50 39.345833a13.720833 13.720833 0 0 0 -13.695833 13.695834 13.720833 13.720833 0 0 0 13.695833 13.695833 13.720833 13.720833 0 0 0 13.695833-13.695833 13.720833 13.720833 0 0 0 -13.695833-13.695834zm0 3.041667a10.629167 10.629167 0 0 1 10.654167 10.654167 10.629167 10.629167 0 0 1 -10.654167 10.654166 10.629167 10.629167 0 0 1 -10.654167-10.654166 10.629167 10.629167 0 0 1 10.654167-10.65zm-9.129167-21.295833a1.5208333 1.5208333 0 0 0 -1.266666.679166l-5.6375 8.445834h-11.358334a7.6333333 7.6333333 0 0 0 -7.608333 7.608333v33.479167c0 4.183333 3.425 7.608333 7.608333 7.608333h54.783334a7.6333333 7.6333333 0 0 0 7.608333-7.608333v-33.479167a7.6333333 7.6333333 0 0 0 -7.608333-7.608333h-11.358334l-5.6375-8.45a1.5208333 1.5208333 0 0 0 -1.266666-.679167zm.8125 3.041666h16.633334l5.633333 8.454167a1.5208333 1.5208333 0 0 0 1.266667.679167h12.175c2.541666 0 4.566666 2.025 4.566666 4.5625v33.479166a4.5416667 4.5416667 0 0 1 -4.566666 4.566667h-54.783334a4.5416667 4.5416667 0 0 1 -4.566666-4.566667v-33.483333c0-2.541667 2.029166-4.5625 4.566666-4.5625h12.175a1.5208333 1.5208333 0 0 0 1.266667-.679167z" fill="#000"/></svg>