<?xml version="1.0" encoding="UTF-8" standalone="no"?>
<svg
   viewBox="0 0 100 100"
   xmlns="http://www.w3.org/2000/svg"
   xmlns:svg="http://www.w3.org/2000/svg">
  <path
     d="m 26.71625,64.99907 a 4.375,4.375 0 0 1 1.255625,3.504375 47.99375,47.99375 0 0 1 -1.74125,8.75 C 32.33375,75.84032 36.06125,74.20407 37.754375,73.34657 a 4.375,4.375 0 0 1 3.10625,-0.32375 35.2625,35.2625 0 0 0 9.139375,1.19 c 17.4825,0 30.625,-12.280625 30.625,-26.25 0,-13.965 -13.1425,-26.25 -30.625,-26.25 -17.4825,0 -30.625,12.285 -30.625,26.25 0,6.4225 2.699375,12.38125 7.34125,17.03625 z M 24.559375,82.083445 A 94.85875,94.85875 0 0 1 21.44,82.64782 c -0.875,0.14 -1.54,-0.77 -1.194375,-1.58375 a 42.35,42.35 0 0 0 1.0675,-2.786875 l 0.01313,-0.04375 c 1.085,-3.15 1.96875,-6.7725 2.2925,-10.145625 C 18.250625,62.70657 15,55.66282 15,47.96282 c 0,-16.91375 15.67125,-30.625 35,-30.625 19.32875,0 35,13.71125 35,30.625 0,16.91375 -15.67125,30.625 -35,30.625 A 39.6375,39.6375 0 0 1 39.731875,77.24907 c -2.275,1.150625 -7.170625,3.24625 -15.1725,4.834375 z"
     style="stroke-width:4.375" />
  <path
     d="m 32.5,39.0625 a 2.1875,2.1875 0 0 1 2.1875,-2.1875 h 30.625 a 2.1875,2.1875 0 0 1 0,4.375 H 34.6875 A 2.1875,2.1875 0 0 1 32.5,39.0625 Z M 32.5,50 a 2.1875,2.1875 0 0 1 2.1875,-2.1875 h 30.625 a 2.1875,2.1875 0 0 1 0,4.375 H 34.6875 A 2.1875,2.1875 0 0 1 32.5,50 Z m 0,10.9375 A 2.1875,2.1875 0 0 1 34.6875,58.75 h 17.5 a 2.1875,2.1875 0 0 1 0,4.375 h -17.5 A 2.1875,2.1875 0 0 1 32.5,60.9375 Z"
     style="stroke-width:4.375" />
</svg>
