<?xml version="1.0" encoding="UTF-8" standalone="no"?>
<svg
   width="100pt"
   height="100pt"
   viewBox="0 0 100 100"
   version="1.2"
   id="svg5"
   xmlns="http://www.w3.org/2000/svg"
   xmlns:svg="http://www.w3.org/2000/svg">
  <defs
     id="defs9" />
  <path
     style="fill:#000000;fill-opacity:1;fill-rule:nonzero;stroke:none;stroke-width:0.182292"
     d="m 19.375,54.375 h 26.25 v 26.25 c 0,2.414652 1.960348,4.375 4.375,4.375 2.414652,0 4.375,-1.960348 4.375,-4.375 v -26.25 h 26.25 C 83.039652,54.375 85,52.414652 85,50 85,47.585348 83.039652,45.625 80.625,45.625 H 54.375 V 19.375 C 54.375,16.960347 52.414652,15 50,15 c -2.414652,0 -4.375,1.960347 -4.375,4.375 v 26.25 H 19.375 C 16.960347,45.625 15,47.585348 15,50 c 0,2.414652 1.960347,4.375 4.375,4.375 z m 0,0"
     id="path2" />
</svg>
