<?xml version="1.0" encoding="UTF-8" standalone="no"?>
<svg viewBox="0 0 100 100" version="1.2" xmlns="http://www.w3.org/2000/svg">
  <path
     style="fill:#2b787a;fill-opacity:1;fill-rule:nonzero;stroke:none;stroke-width:4.53358"
     d="m 27.898793,17.698235 c -3.736664,0 -6.800372,3.063708 -6.800372,6.800372 v 57.803158 l 23.8013,-20.401115 h 27.201487 c 3.736663,0 6.800371,-3.063708 6.800371,-6.800371 V 24.498607 c 0,-3.736664 -3.063708,-6.800372 -6.800371,-6.800372 z m 39.863637,9.40364 h 0.371894 v 25.288882 h -0.371889 z m -11.015187,0.01771 h 0.354186 v 25.271174 h -0.354186 z m 0,0"/>
  <path
     style="fill:none;stroke:#35b0ab;stroke-width:3.40019;stroke-linecap:butt;stroke-linejoin:miter;stroke-miterlimit:4;stroke-opacity:1"
     d="m 27.898793,16.700092 c -3.736664,0 -6.800372,3.063707 -6.800372,6.800371 v 57.803159 l 23.8013,-20.401115 h 27.201487 c 3.736663,0 6.800371,-3.063708 6.800371,-6.800371 V 23.500463 c 0,-3.736664 -3.063708,-6.800371 -6.800371,-6.800371 z m 39.863637,9.40364 h 0.371894 v 25.288882 h -0.371889 z m -11.015187,0.01771 h 0.354186 v 25.271174 h -0.354186 z m 0,0"/>
</svg>
