<?xml version="1.0" encoding="UTF-8" standalone="no"?>
<svg viewBox="0 0 100 100" version="1.2" xmlns="http://www.w3.org/2000/svg">
  <path d="M 24.871795,15 C 19.449789,15 15,19.449789 15,24.871795 v 50.25641 C 15,80.550211 19.449789,85 24.871795,85 h 50.25641 C 80.550211,85 85,80.550211 85,75.128205 V 24.871795 C 85,19.449789 80.550211,15 75.128205,15 Z m 0,5.384615 h 50.25641 c 2.52404,0 4.48718,1.96314 4.48718,4.48718 v 50.25641 c 0,2.52404 -1.96314,4.48718 -4.48718,4.48718 h -50.25641 c -2.52404,0 -4.48718,-1.96314 -4.48718,-4.48718 v -50.25641 c 0,-2.52404 1.96314,-4.48718 4.48718,-4.48718 z M 35.641026,47.307692 C 34.145299,47.288997 32.911327,48.504274 32.911327,50 c 0,1.495726 1.233972,2.711003 2.729699,2.692308 h 28.717948 c 1.495727,0.0187 2.729699,-1.196582 2.729699,-2.692308 0,-1.495726 -1.233972,-2.711003 -2.729699,-2.692308 z m 0,0"/>
</svg>
