<?xml version="1.0" encoding="UTF-8" standalone="no"?>
<svg viewBox="0 0 100 100" version="1.2" xmlns="http://www.w3.org/2000/svg">
  <path d="M 81.818182,46.819385 H 69.090909 c -1.396707,0 -2.583673,0.900066 -3.019723,2.176108 L 59.545455,68.576311 43.474269,20.359129 c -0.557232,-1.667037 -2.35788,-2.56762 -4.025435,-2.014013 -0.986032,0.327815 -1.702252,1.091161 -2.014012,2.014013 L 28.614909,46.819385 H 18.181818 C 16.425707,46.819385 15,48.244575 15,50.001203 c 0,1.756112 1.425707,3.181819 3.181818,3.181819 h 12.727273 c 1.345954,-0.0098 2.57746,-0.849831 3.019723,-2.176625 L 40.454545,31.425579 56.525731,79.64276 c 0.31176,0.922852 1.02798,1.683092 2.010904,2.010906 1.667555,0.556714 3.468203,-0.346975 4.025436,-2.010906 l 8.82302,-26.459738 H 81.818182 C 83.574292,53.183022 85,51.757315 85,50.001203 85,48.244575 83.574292,46.819385 81.818182,46.819385 Z m 0,0"/>
</svg>
