<?xml version="1.0" encoding="UTF-8" standalone="no"?>
<svg viewBox="0 0 100 100" version="1.2" xmlns="http://www.w3.org/2000/svg">
  <path d="m 47.500422,47.505225 c 0,-1.366957 1.132621,-2.499578 2.499578,-2.499578 1.366956,0 2.499578,1.132621 2.499578,2.499578 0,1.366957 -1.132622,2.499578 -2.499578,2.499578 -1.366957,0 -2.499578,-1.132621 -2.499578,-2.499578 z M 50,35.788453 65.54425,15.987109 c 0.507727,-0.703007 1.366957,-1.05451 2.187131,-0.976398 0.85923,0.117168 1.601292,0.624895 1.991851,1.366957 l 2.499578,4.999156 c 0.19528,0.351503 0.273392,0.742062 0.273392,1.132621 0,0.429615 -0.117168,0.85923 -0.312448,1.210733 l -15.114635,26.948575 2.57769,4.29615 c 0.07811,0.156224 0.156223,0.312447 0.195279,0.468671 1.210733,-0.351503 2.499578,-0.507727 3.788423,-0.390559 4.022758,0.351503 7.850237,3.046361 10.58415,7.34251 2.109019,3.319752 3.280697,7.147231 3.280697,10.818486 0,3.515032 -1.05451,6.483281 -3.046361,8.670411 -2.069963,2.226187 -5.038212,3.358808 -8.084573,3.085417 -3.983702,-0.351503 -7.850237,-3.046361 -10.58415,-7.303455 -2.109019,-3.319752 -3.280696,-7.186286 -3.280696,-10.857541 0,-2.187131 0.429615,-4.178982 1.210733,-5.897442 -0.351503,-0.234336 -0.624895,-0.507727 -0.85923,-0.85923 L 50,55.27735 47.148919,60.042171 c -0.234336,0.351503 -0.507727,0.624894 -0.85923,0.85923 0.781118,1.71846 1.210733,3.710311 1.210733,5.897442 0,3.671255 -1.171677,7.537789 -3.280696,10.857541 -2.733914,4.257094 -6.600448,6.951952 -10.584151,7.303455 -3.04636,0.273391 -6.014609,-0.85923 -8.045516,-3.085417 -2.030907,-2.18713 -3.085417,-5.155379 -3.085417,-8.670411 0,-3.671255 1.171677,-7.498734 3.280696,-10.818486 2.694858,-4.296149 6.561392,-6.991007 10.584151,-7.34251 1.288844,-0.117168 2.577689,0.03906 3.788422,0.390559 0.03906,-0.156224 0.117168,-0.312447 0.19528,-0.468671 l 2.57769,-4.29615 -15.114636,-26.948575 c -0.195279,-0.351503 -0.312447,-0.781118 -0.312447,-1.210733 0,-0.390559 0.07811,-0.781118 0.273391,-1.132621 l 2.499578,-4.999156 c 0.390559,-0.742062 1.132622,-1.249789 1.991852,-1.366957 0.820174,-0.07811 1.679403,0.273391 2.18713,0.976398 z M 39.845464,62.385525 c -2.187131,-2.38241 -6.131777,-0.898286 -8.787579,3.319752 -1.52318,2.382411 -2.304298,5.15538 -2.304298,7.498734 0,1.796572 0.468671,3.397864 1.406013,4.413318 2.18713,2.38241 6.131777,0.898285 8.787578,-3.319752 1.523181,-2.382411 2.304299,-5.116324 2.304299,-7.498734 0,-1.796572 -0.468671,-3.397864 -1.406013,-4.413318 z m 29.09665,3.319752 c -2.655801,-4.218038 -6.600448,-5.702162 -8.787579,-3.319752 -0.937341,1.015454 -1.406012,2.616746 -1.406012,4.413318 0,2.38241 0.781118,5.116323 2.304298,7.498734 2.655802,4.218037 6.600448,5.702162 8.787579,3.319752 0.937342,-1.015454 1.406013,-2.616746 1.406013,-4.413318 0,-2.343354 -0.781119,-5.116323 -2.304299,-7.498734 z m -23.94127,-6.951951 2.265242,-3.749367 h -0.429615 c -0.898285,0 -1.718459,-0.507727 -2.18713,-1.288845 l -0.312448,-0.546783 -1.835627,3.085417 1.015453,1.015454 c 0.312448,0.312447 0.624895,0.546782 0.898286,0.85923 0.117168,0.117167 0.156224,0.195279 0.234336,0.273391 z m 8.748523,-8.748523 1.249789,-3.749367 -22.496202,-28.745147 -2.499578,4.999156 16.833095,29.994936 h 4.413318 l 3.749367,6.248945 0.312447,-0.351503 c 0.117168,-0.07811 0.156224,-0.156224 0.234335,-0.273391 0.312448,-0.312448 0.624895,-0.546783 0.937342,-0.85923 l 1.015454,-1.015454 z m 16.247257,-27.495358 -2.499578,-4.999156 -15.93481,20.309071 5.389715,6.912896 c 0.156224,0.117168 0.19528,0.312447 0.273391,0.507727 z m 0,0"/>
</svg>
