<?xml version="1.0" encoding="UTF-8" standalone="no"?>
<svg viewBox="0 0 100 100" version="1.2" xmlns="http://www.w3.org/2000/svg">
  <path d="m 30,15 c -4.583333,0 -8.333333,3.75 -8.333333,8.333333 V 76.666667 C 21.666667,81.25 25.416667,85 30,85 h 40 c 4.583333,0 8.333333,-3.75 8.333333,-8.333333 v -40 c 0,-0.434027 -0.173599,-0.868054 -0.486111,-1.180556 l -20,-20 C 57.534719,15.173611 57.100693,15 56.666666,15 Z m 0,3.333333 H 55.972222 L 75,37.361111 v 39.305556 c 0,2.777777 -2.222223,5 -5,5 H 30 c -2.777778,0 -5,-2.222223 -5,-5 V 23.333333 c 0,-2.777777 2.222222,-5 5,-5 z M 56.666666,15 C 55.746528,15 55,15.746529 55,16.666667 v 20 c 0,0.920137 0.746528,1.666666 1.666666,1.666666 h 20 c 0.920138,0 1.666667,-0.746529 1.666667,-1.666666 C 78.333333,35.746529 77.586804,35 76.666666,35 H 58.333333 V 16.666667 C 58.333333,15.746529 57.586804,15 56.666666,15 Z M 50,48.333333 c -0.920138,0 -1.666667,0.746529 -1.666667,1.666667 v 20 c 0,0.920138 0.746529,1.666667 1.666667,1.666667 0.920137,0 1.666666,-0.746529 1.666666,-1.666667 V 50 c 0,-0.920138 -0.746529,-1.666667 -1.666666,-1.666667 z m -10,10 c -0.920138,0 -1.666667,0.746529 -1.666667,1.666667 0,0.920138 0.746529,1.666667 1.666667,1.666667 h 19.999999 c 0.920138,0 1.666667,-0.746529 1.666667,-1.666667 0,-0.920138 -0.746529,-1.666667 -1.666666,-1.666667 z m 0,0"/>
</svg>
