<?xml version="1.0" encoding="UTF-8" standalone="no"?>
<svg viewBox="0 0 100 100" version="1.2" xmlns="http://www.w3.org/2000/svg">
  <path d="m 74,39 c -1.666667,0 -3,1.333333 -3,3 v 40 c 0,1.666667 1.333333,3 3,3 1.666667,0 3,-1.333333 3,-3 V 42 c 0,-1.666667 -1.333333,-3 -3,-3 z M 50,15 c -1.666667,0 -3,1.333333 -3,3 v 64 c 0,1.666667 1.333333,3 3,3 1.666667,0 3,-1.333333 3,-3 V 18 c 0,-1.666667 -1.333333,-3 -3,-3 z M 26,55 c -1.666667,0 -3,1.333333 -3,3 v 24 c 0,1.666667 1.333333,3 3,3 1.666667,0 3,-1.333333 3,-3 V 58 c 0,-1.666667 -1.333333,-3 -3,-3 z m 0,0"/>
</svg>
