<?xml version="1.0" encoding="UTF-8" standalone="no"?>
<svg viewBox="0 0 100 100" version="1.2" xmlns="http://www.w3.org/2000/svg">
  <path d="m 81.171875,76.25 c 0.592448,0 1.105143,0.210775 1.538086,0.632324 0.432943,0.42155 0.649414,0.939942 0.649414,1.555176 0,0.546875 -0.193685,1.048177 -0.581055,1.503906 -0.683593,0.797526 -1.469726,1.509603 -2.358398,2.136231 -0.888672,0.626627 -1.83431,1.156412 -2.836914,1.589355 -1.002604,0.432943 -2.039388,0.763347 -3.110352,0.991211 C 73.401693,84.886068 72.353516,85 71.328125,85 69.072266,85 66.987305,84.561361 65.073242,83.684082 63.15918,82.806803 61.427409,81.559245 59.87793,79.941406 58.761393,78.779297 57.519531,77.873535 56.152344,77.224121 54.785156,76.574707 53.28125,76.25 51.640625,76.25 c -1.595052,0 -3.093262,0.324707 -4.494629,0.974121 -1.401367,0.649414 -2.648926,1.555176 -3.742676,2.717285 l -0.324707,0.307617 -0.786133,0.769043 -1.0083,1.008301 -1.042481,1.025391 -0.854492,0.854492 -0.427246,0.444336 C 38.527018,84.783529 38.014323,85 37.421875,85 36.829427,85 36.316732,84.783529 35.883789,84.350586 35.450846,83.917643 35.234375,83.404948 35.234375,82.8125 c 0,-0.592448 0.216471,-1.105143 0.649414,-1.538086 1.230469,-1.230469 2.392578,-2.415365 3.486328,-3.554687 1.09375,-1.139323 2.233073,-2.141928 3.417969,-3.007813 1.184896,-0.865885 2.483724,-1.555176 3.896484,-2.067871 1.412761,-0.512695 3.064779,-0.769043 4.956055,-0.769043 2.255859,0 4.34082,0.438639 6.254883,1.315918 1.914062,0.877279 3.645833,2.124837 5.195312,3.742676 1.116537,1.162109 2.358399,2.067871 3.725586,2.717285 1.367188,0.649414 2.871094,0.974121 4.511719,0.974121 1.731771,0 3.235677,-0.324707 4.511719,-0.974121 1.276041,-0.649414 2.517903,-1.555176 3.725586,-2.717285 0.250651,-0.227865 0.495605,-0.398763 0.734863,-0.512696 C 80.539551,76.306966 80.830078,76.25 81.171875,76.25 Z M 55.571289,24.912109 c 0.31901,0.182292 0.581055,0.444336 0.786133,0.786133 0.205078,0.341797 0.307617,0.70638 0.307617,1.09375 0,0.182292 -0.02279,0.35319 -0.06836,0.512696 -0.04557,0.159505 -0.102539,0.31901 -0.170899,0.478515 L 32.260742,76.147461 c -0.205078,0.432943 -0.524088,0.751953 -0.957031,0.957031 l -5.913086,2.973633 C 24.661458,80.442708 23.875326,80.625 23.032227,80.625 H 22.70752 l -0.324707,-0.03418 -1.606446,3.212891 c -0.182291,0.364583 -0.450032,0.655111 -0.803222,0.871582 C 19.619954,84.891764 19.238281,85 18.828125,85 18.235677,85 17.722982,84.783529 17.290039,84.350586 16.857096,83.917643 16.640625,83.404948 16.640625,82.8125 c 0,-0.273438 0.07975,-0.615234 0.239258,-1.025391 0.159505,-0.410156 0.347493,-0.837402 0.563965,-1.281738 0.216471,-0.444336 0.438639,-0.860189 0.666504,-1.247559 0.227864,-0.387369 0.398763,-0.70638 0.512695,-0.957031 -0.592448,-0.911458 -0.888672,-1.902669 -0.888672,-2.973633 V 69.6875 c 0,-0.364583 0.07975,-0.694987 0.239258,-0.991211 l 19.6875,-39.375 -2.22168,-1.09375 -8.100586,16.201172 c -0.182291,0.364583 -0.450032,0.655111 -0.803222,0.871582 -0.353191,0.216471 -0.734864,0.324707 -1.14502,0.324707 -0.592448,0 -1.105143,-0.216471 -1.538086,-0.649414 -0.432943,-0.432943 -0.649414,-0.945638 -0.649414,-1.538086 0,-0.296224 0.07975,-0.626628 0.239258,-0.991211 l 8.168945,-16.337891 c 0.364583,-0.729166 0.854492,-1.304524 1.469727,-1.726074 0.615234,-0.421549 1.333007,-0.632324 2.15332,-0.632324 0.797526,0 1.555176,0.193685 2.272949,0.581055 0.717774,0.387369 1.418457,0.751953 2.102051,1.09375 l 2.426758,-4.853516 c 0.182291,-0.38737 0.450032,-0.683594 0.803222,-0.888672 0.353191,-0.205078 0.734864,-0.307617 1.14502,-0.307617 0.296224,0 0.546875,0.04557 0.751953,0.136719 0.273438,-0.546875 0.541179,-1.088054 0.803223,-1.623535 0.262044,-0.535482 0.558268,-1.019694 0.888672,-1.452637 0.330403,-0.432943 0.734863,-0.780436 1.213379,-1.042481 C 48.120117,15.131022 48.723958,15 49.453125,15 c 0.729167,0 1.424154,0.170898 2.084961,0.512695 l 3.212891,1.606446 c 0.729166,0.364583 1.304524,0.848795 1.726074,1.452636 0.421549,0.603841 0.632324,1.327312 0.632324,2.17041 0,0.77474 -0.176595,1.49821 -0.529785,2.170411 -0.35319,0.6722 -0.689291,1.338704 -1.008301,1.999511 z m -6.904297,-3.452148 2.973633,1.469726 0.991211,-1.982421 -2.973633,-1.469727 z m 2.871094,6.323242 -6.5625,-3.28125 -22.866211,45.698242 v 5.126953 c 0,0.250651 0.09115,0.467123 0.273438,0.649414 0.182291,0.182292 0.398763,0.273438 0.649414,0.273438 0.09115,0 0.279134,-0.05697 0.563964,-0.170898 0.284831,-0.113933 0.615235,-0.262045 0.991211,-0.444336 0.375977,-0.182292 0.77474,-0.381674 1.196289,-0.598145 0.42155,-0.216471 0.82601,-0.427246 1.213379,-0.632324 0.38737,-0.205078 0.729167,-0.38737 1.025391,-0.546875 0.296224,-0.159505 0.512695,-0.273438 0.649414,-0.341797 z m 0,0"/>
</svg>
