<svg
   width="100"
   height="100"
   fill="currentColor"
   viewBox="0 0 100 100"
   version="1.1"
   xmlns="http://www.w3.org/2000/svg"
   xmlns:svg="http://www.w3.org/2000/svg">
  <path
     d="m 21.5625,19.375 a 2.1875,2.1875 0 0 0 -2.1875,2.1875 v 17.5 a 2.1875,2.1875 0 0 1 -4.375,0 v -17.5 A 6.5625,6.5625 0 0 1 21.5625,15 h 17.5 a 2.1875,2.1875 0 0 1 0,4.375 z M 58.75,17.1875 A 2.1875,2.1875 0 0 1 60.9375,15 h 17.5 A 6.5625,6.5625 0 0 1 85,21.5625 v 17.5 a 2.1875,2.1875 0 0 1 -4.375,0 v -17.5 A 2.1875,2.1875 0 0 0 78.4375,19.375 h -17.5 A 2.1875,2.1875 0 0 1 58.75,17.1875 Z M 17.1875,58.75 a 2.1875,2.1875 0 0 1 2.1875,2.1875 v 17.5 a 2.1875,2.1875 0 0 0 2.1875,2.1875 h 17.5 a 2.1875,2.1875 0 0 1 0,4.375 h -17.5 A 6.5625,6.5625 0 0 1 15,78.4375 v -17.5 A 2.1875,2.1875 0 0 1 17.1875,58.75 Z m 65.625,0 A 2.1875,2.1875 0 0 1 85,60.9375 v 17.5 A 6.5625,6.5625 0 0 1 78.4375,85 h -17.5 a 2.1875,2.1875 0 0 1 0,-4.375 h 17.5 a 2.1875,2.1875 0 0 0 2.1875,-2.1875 v -17.5 A 2.1875,2.1875 0 0 1 82.8125,58.75 Z"
     style="stroke-width:4.375" />
</svg>
