<svg
   width="100"
   height="100"
   fill="currentColor"
   viewBox="0 0 100 100"
   version="1.1"
   xmlns="http://www.w3.org/2000/svg"
   xmlns:svg="http://www.w3.org/2000/svg">
  <path
     d="m 50,35.797862 a 14.202138,14.202138 0 1 0 0,28.404276 14.202138,14.202138 0 0 0 0,-28.404276 z M 40.173136,50 a 9.8268642,9.8268642 0 1 1 19.653728,0 9.8268642,9.8268642 0 0 1 -19.653728,0 z"
     style="stroke-width:4.37527" />
  <path
     d="m 57.857991,20.873805 c -2.305769,-7.83174 -13.410213,-7.83174 -15.715982,0 l -0.411276,1.395712 a 3.8196137,3.8196137 0 0 1 -5.490968,2.275142 l -1.27758,-0.700044 c -7.175448,-3.902744 -15.020314,3.946497 -11.113194,11.11757 l 0.695668,1.27758 a 3.8196137,3.8196137 0 0 1 -2.275142,5.490968 l -1.395712,0.411276 c -7.83174,2.305769 -7.83174,13.410213 0,15.715982 l 1.395712,0.411276 a 3.8196137,3.8196137 0 0 1 2.275142,5.490968 l -0.700044,1.27758 c -3.902744,7.175448 3.942122,15.024689 11.11757,11.113194 l 1.27758,-0.695668 a 3.8196137,3.8196137 0 0 1 5.490968,2.275142 l 0.411276,1.395712 c 2.305769,7.83174 13.410213,7.83174 15.715982,0 l 0.411276,-1.395712 a 3.8196137,3.8196137 0 0 1 5.490968,-2.275142 l 1.27758,0.700044 c 7.175448,3.907119 15.024689,-3.946497 11.113194,-11.11757 l -0.695668,-1.27758 a 3.8196137,3.8196137 0 0 1 2.275142,-5.490968 l 1.395712,-0.411276 c 7.83174,-2.305769 7.83174,-13.410213 0,-15.715982 l -1.395712,-0.411276 a 3.8196137,3.8196137 0 0 1 -2.275142,-5.490968 l 0.700044,-1.27758 C 80.062504,27.786737 72.208888,19.941871 65.037815,23.848991 l -1.27758,0.695668 a 3.8196137,3.8196137 0 0 1 -5.490968,-2.275142 z m -11.520095,1.238202 c 1.076317,-3.653353 6.247891,-3.653353 7.324208,0 l 0.411276,1.395712 a 8.1948872,8.1948872 0 0 0 11.782611,4.87843 l 1.273205,-0.700044 c 3.342708,-1.815738 7.000437,1.837615 5.180323,5.184699 l -0.695668,1.27758 a 8.1948872,8.1948872 0 0 0 4.882805,11.778236 l 1.391337,0.411276 c 3.653353,1.076317 3.653353,6.247891 0,7.324208 l -1.395712,0.411276 a 8.1948872,8.1948872 0 0 0 -4.87843,11.782611 l 0.700044,1.273205 c 1.815738,3.342708 -1.837615,7.000437 -5.184699,5.180323 L 65.855991,71.613851 A 8.1948872,8.1948872 0 0 0 54.07338,76.496656 l -0.411276,1.391337 c -1.076317,3.653353 -6.247891,3.653353 -7.324208,0 L 45.92662,76.492281 a 8.1948872,8.1948872 0 0 0 -11.778236,-4.87843 l -1.27758,0.700044 c -3.342708,1.815738 -7.000437,-1.837615 -5.180323,-5.184699 l 0.695668,-1.273205 a 8.1948872,8.1948872 0 0 0 -4.87843,-11.786987 l -1.395712,-0.411275 c -3.653353,-1.076318 -3.653353,-6.247891 0,-7.324208 l 1.395712,-0.411276 a 8.1948872,8.1948872 0 0 0 4.87843,-11.773861 l -0.700044,-1.27758 c -1.815738,-3.342708 1.837615,-7.000437 5.184699,-5.180323 l 1.27758,0.695668 a 8.1948872,8.1948872 0 0 0 11.778236,-4.87843 z"
     style="stroke-width:4.37527" />
</svg>
