<svg version="1.2" baseProfile="tiny-ps" xmlns="http://www.w3.org/2000/svg" viewBox="0 0 55 75" width="55" height="75"><title>hand-svg</title><style>tspan { white-space:pre }.shp0 { fill: #000000 } </style><path class="shp0" d="M47.58 29.4C45 29.07 42.3 30.22 40.99 32.71C40.98 32.73 40.98 32.74 40.97 32.76C40.96 32.77 40.95 32.79 40.95 32.8C40.94 32.82 40.93 32.83 40.93 32.85C40.92 32.86 40.91 32.88 40.91 32.89L35.91 44.91C35.8 45.18 35.75 45.46 35.75 45.75C35.75 46.03 35.8 46.32 35.91 46.58C36.02 46.85 36.18 47.09 36.39 47.29C36.59 47.5 36.83 47.66 37.09 47.77C37.36 47.88 37.64 47.94 37.93 47.94C38.22 47.94 38.5 47.88 38.77 47.77C39.03 47.66 39.28 47.5 39.48 47.3C39.68 47.1 39.84 46.86 39.95 46.59L44.88 34.74C45.43 33.71 46.78 33.4 47.9 34.03C47.9 34.04 47.9 34.04 47.9 34.04C47.9 34.04 47.9 34.04 47.9 34.04C47.91 34.04 47.91 34.04 47.91 34.04C47.91 34.04 47.91 34.04 47.91 34.03C48.5 34.37 48.69 34.67 48.81 35.16C48.93 35.66 48.9 36.41 48.56 37.34C48.56 37.34 48.56 37.34 48.56 37.34C48.56 37.34 48.56 37.34 48.56 37.34C48.56 37.34 48.56 37.34 48.56 37.34C48.56 37.34 48.56 37.34 48.55 37.34L41.38 56.95C40.09 60.03 38.41 62.62 35.76 64.49C33.12 66.37 29.4 67.63 23.71 67.63C18.18 67.63 13.67 65.84 10.42 62.32C7.18 58.79 5.12 53.38 5.12 45.75C5.12 45.46 5.07 45.18 4.96 44.91C4.85 44.65 4.68 44.41 4.48 44.2C4.28 44 4.04 43.84 3.77 43.73C3.51 43.62 3.22 43.56 2.93 43.56C2.65 43.56 2.36 43.62 2.1 43.73C1.83 43.84 1.59 44 1.39 44.2C1.18 44.41 1.02 44.65 0.91 44.91C0.8 45.18 0.75 45.46 0.75 45.75C0.75 54.17 3.06 60.79 7.2 65.28C11.34 69.78 17.21 72 23.72 72C30.06 72 34.8 70.54 38.3 68.06C41.79 65.58 43.94 62.16 45.42 58.63C45.42 58.62 45.43 58.61 45.43 58.6C45.43 58.6 45.44 58.59 45.44 58.58C45.44 58.57 45.45 58.56 45.45 58.56C45.45 58.55 45.45 58.54 45.46 58.53L52.66 38.85L52.66 38.85C53.23 37.31 53.45 35.69 53.06 34.12C52.67 32.54 51.59 31.1 50.07 30.23C49.87 30.12 49.68 30.02 49.48 29.93C49.28 29.84 49.07 29.76 48.86 29.7C48.65 29.63 48.44 29.57 48.23 29.52C48.01 29.47 47.8 29.43 47.58 29.4L47.58 29.4ZM24.81 2C21.8 2 19.35 4.11 18.59 6.89C18.39 6.81 18.19 6.73 17.98 6.67C17.77 6.6 17.56 6.55 17.35 6.51C17.14 6.46 16.92 6.43 16.71 6.41C16.49 6.39 16.28 6.38 16.06 6.38C12.46 6.38 9.5 9.34 9.5 12.94L9.5 15.57C8.8 15.32 8.08 15.13 7.31 15.13C3.71 15.13 0.75 18.09 0.75 21.69L0.75 45.75C0.75 46.04 0.8 46.32 0.91 46.59C1.02 46.85 1.18 47.09 1.39 47.3C1.59 47.5 1.83 47.66 2.1 47.77C2.36 47.88 2.65 47.94 2.94 47.94C3.22 47.94 3.51 47.88 3.77 47.77C4.04 47.66 4.28 47.5 4.48 47.3C4.68 47.09 4.85 46.85 4.96 46.59C5.07 46.32 5.12 46.04 5.12 45.75L5.12 21.69C5.12 20.45 6.08 19.5 7.31 19.5C8.54 19.5 9.5 20.45 9.5 21.69L9.5 37C9.5 37.29 9.55 37.57 9.66 37.84C9.77 38.1 9.93 38.34 10.14 38.55C10.34 38.75 10.58 38.91 10.85 39.02C11.11 39.13 11.4 39.19 11.69 39.19C11.97 39.19 12.26 39.13 12.52 39.02C12.79 38.91 13.03 38.75 13.23 38.55C13.43 38.34 13.59 38.1 13.7 37.84C13.81 37.57 13.87 37.29 13.87 37L13.87 12.94C13.87 11.7 14.82 10.75 16.06 10.75C17.29 10.75 18.24 11.7 18.24 12.94L18.24 34.81C18.25 34.96 18.26 35.1 18.29 35.24C18.31 35.38 18.36 35.52 18.41 35.65C18.47 35.78 18.53 35.91 18.61 36.03C18.69 36.15 18.78 36.26 18.89 36.36C18.99 36.46 19.1 36.55 19.22 36.63C19.34 36.71 19.46 36.78 19.6 36.83C19.73 36.89 19.87 36.93 20.01 36.96C20.15 36.99 20.29 37 20.43 37C20.72 37 21 36.94 21.27 36.83C21.54 36.72 21.78 36.56 21.98 36.36C22.18 36.16 22.34 35.91 22.45 35.65C22.56 35.38 22.62 35.1 22.62 34.81L22.62 8.56C22.62 7.33 23.57 6.38 24.81 6.38C26.04 6.38 26.99 7.33 26.99 8.56L26.99 34.95C26.99 35.24 27.05 35.52 27.16 35.79C27.27 36.05 27.43 36.29 27.64 36.5C27.84 36.7 28.08 36.86 28.35 36.97C28.61 37.08 28.9 37.14 29.18 37.14C29.47 37.14 29.75 37.08 30.02 36.97C30.29 36.86 30.53 36.7 30.73 36.5C30.93 36.29 31.09 36.05 31.2 35.79C31.31 35.52 31.37 35.24 31.37 34.95L31.37 15.13C31.37 13.89 32.32 12.94 33.56 12.94C34.79 12.94 35.74 13.89 35.74 15.13L35.74 45.75C35.74 46.04 35.8 46.32 35.91 46.59C36.02 46.85 36.18 47.09 36.39 47.3C36.59 47.5 36.83 47.66 37.1 47.77C37.36 47.88 37.65 47.94 37.93 47.94C38.22 47.94 38.5 47.88 38.77 47.77C39.04 47.66 39.28 47.5 39.48 47.3C39.68 47.09 39.84 46.85 39.95 46.59C40.06 46.32 40.12 46.04 40.12 45.75L40.12 15.13C40.12 11.53 37.16 8.56 33.56 8.56C32.78 8.56 32.06 8.76 31.37 9.01L31.37 8.56C31.37 4.96 28.41 2 24.81 2L24.81 2Z" /></svg>