<svg height="100" viewBox="0 0 100 100" width="100" xmlns="http://www.w3.org/2000/svg"><path d="m70.576745 42.4c-2.58-.33-5.28.82-6.59 3.31-.01.02-.01.03-.02.05-.01.01-.02.03-.02.04-.01.02-.02.03-.02.05-.01.01-.02.03-.02.04l-5 12.02c-.11.27-.16.55-.16.84 0 .28.05.57.16.83.11.27.27.51.48.71.2.21.44.37.7.48.27.11.55.17.84.17s.57-.06.84-.17c.26-.11.51-.27.71-.47s.36-.44.47-.71l4.93-11.85c.55-1.03 1.9-1.34 3.02-.71v.01h.01s0 0 0-.01c.59.34.78.64.9 1.13.12.5.09 1.25-.25 2.18s0 0-.01 0l-7.17 19.61c-1.29 3.08-2.97 5.67-5.62 7.54-2.64 1.88-6.36 3.14-12.05 3.14-5.53 0-10.04-1.79-13.29-5.31-3.24-3.53-5.3-8.94-5.3-16.57 0-.29-.05-.57-.16-.84-.11-.26-.28-.5-.48-.71-.2-.2-.44-.36-.71-.47-.26-.11-.55-.17-.84-.17-.28 0-.57.06-.83.17-.27.11-.51.27-.71.47-.21.21-.37.45-.48.71-.11.27-.16.55-.16.84 0 8.42 2.31 15.04 6.45 19.53 4.14 4.5 10.01 6.72 16.52 6.72 6.34 0 11.08-1.46 14.58-3.94 3.49-2.48 5.64-5.9 7.12-9.43 0-.01.01-.02.01-.03 0 0 .01-.01.01-.02s.01-.02.01-.02c0-.01 0-.02.01-.03l7.2-19.68c.57-1.54.79-3.16.4-4.73-.39-1.58-1.47-3.02-2.99-3.89-.2-.11-.39-.21-.59-.3s-.41-.17-.62-.23c-.21-.07-.42-.13-.63-.18-.22-.05-.43-.09-.65-.12zm-22.77-27.4c-3.01 0-5.46 2.11-6.22 4.89-.2-.08-.4-.16-.61-.22-.21-.07-.42-.12-.63-.16-.21-.05-.43-.08-.64-.1-.22-.02-.43-.03-.65-.03-3.6 0-6.56 2.96-6.56 6.56v2.63c-.7-.25-1.42-.44-2.19-.44-3.6 0-6.56 2.96-6.56 6.56v24.06c0 .29.05.57.16.84.11.26.27.5.48.71.2.2.44.36.71.47.26.11.55.17.84.17.28 0 .57-.06.83-.17.27-.11.51-.27.71-.47.2-.21.37-.45.48-.71.11-.27.16-.55.16-.84v-24.06c0-1.24.96-2.19 2.19-2.19s2.19.95 2.19 2.19v15.31c0 .29.05.57.16.84.11.26.27.5.48.71.2.2.44.36.71.47.26.11.55.17.84.17.28 0 .57-.06.83-.17.27-.11.51-.27.71-.47.2-.21.36-.45.47-.71.11-.27.17-.55.17-.84v-24.06c0-1.24.95-2.19 2.19-2.19 1.23 0 2.18.95 2.18 2.19v21.87c.01.15.02.29.05.43.02.14.07.28.12.41.06.13.12.26.2.38s.17.23.28.33c.1.1.21.19.33.27s.24.15.38.2c.13.06.27.1.41.13s.28.04.42.04c.29 0 .57-.06.84-.17s.51-.27.71-.47.36-.45.47-.71c.11-.27.17-.55.17-.84v-26.25c0-1.23.95-2.18 2.19-2.18 1.23 0 2.18.95 2.18 2.18v26.39c0 .29.06.57.17.84.11.26.27.5.48.71.2.2.44.36.71.47.26.11.55.17.83.17.29 0 .57-.06.84-.17s.51-.27.71-.47c.2-.21.36-.45.47-.71.11-.27.17-.55.17-.84v-19.82c0-1.24.95-2.19 2.19-2.19 1.23 0 2.18.95 2.18 2.19v30.62c0 .29.06.57.17.84.11.26.27.5.48.71.2.2.44.36.71.47.26.11.55.17.83.17.29 0 .57-.06.84-.17s.51-.27.71-.47c.2-.21.36-.45.47-.71.11-.27.17-.55.17-.84v-30.62c0-3.6-2.96-6.57-6.56-6.57-.78 0-1.5.2-2.19.45v-.45c0-3.6-2.96-6.56-6.56-6.56z"/></svg>