<svg
   width="100"
   height="100"
   fill="currentColor"
   viewBox="0 0 100 100"
   version="1.1"
   xmlns="http://www.w3.org/2000/svg"
   xmlns:svg="http://www.w3.org/2000/svg">
  <path
     d="m 43.613446,37.281875 a 2.1875,2.1875 0 0 0 -3.45625,1.780625 v 21.875 a 2.1875,2.1875 0 0 0 3.45625,1.780625 l 15.3125,-10.9375 a 2.1875,2.1875 0 0 0 0,-3.56125 z"
     style="stroke-width:4.375" />
  <path
     d="m 15,32.5 a 8.75,8.75 0 0 1 8.75,-8.75 h 52.5 A 8.75,8.75 0 0 1 85,32.5 v 35 a 8.75,8.75 0 0 1 -8.75,8.75 H 23.75 A 8.75,8.75 0 0 1 15,67.5 Z m 65.625,0 A 4.375,4.375 0 0 0 76.25,28.125 H 23.75 A 4.375,4.375 0 0 0 19.375,32.5 v 35 a 4.375,4.375 0 0 0 4.375,4.375 h 52.5 A 4.375,4.375 0 0 0 80.625,67.5 Z"
     style="stroke-width:4.375" />
</svg>
