<svg
   width="100"
   height="100"
   fill="currentColor"
   viewBox="0 0 100 100"
   version="1.1"
   xmlns="http://www.w3.org/2000/svg"
   xmlns:svg="http://www.w3.org/2000/svg">
  <g
     transform="translate(15,16.459063)">
    <path
       d="m 61.25,4.375 a 4.375,4.375 0 0 1 4.375,4.375 v 35 A 4.375,4.375 0 0 1 61.25,48.125 H 50.3125 a 8.75,8.75 0 0 0 -7,3.5 L 35,62.706875 26.6875,51.625 a 8.75,8.75 0 0 0 -7,-3.5 H 8.75 A 4.375,4.375 0 0 1 4.375,43.75 v -35 A 4.375,4.375 0 0 1 8.75,4.375 Z M 8.75,0 A 8.75,8.75 0 0 0 0,8.75 v 35 a 8.75,8.75 0 0 0 8.75,8.75 h 10.9375 a 4.375,4.375 0 0 1 3.5,1.75 L 31.5,65.331875 a 4.375,4.375 0 0 0 7,0 L 46.8125,54.25 a 4.375,4.375 0 0 1 3.5,-1.75 H 61.25 A 8.75,8.75 0 0 0 70,43.75 v -35 A 8.75,8.75 0 0 0 61.25,0 Z"
       style="stroke-width:4.375" />
    <path
       d="m 13.125,15.3125 a 2.1875,2.1875 0 0 1 2.1875,-2.1875 h 39.375 a 2.1875,2.1875 0 0 1 0,4.375 H 15.3125 A 2.1875,2.1875 0 0 1 13.125,15.3125 Z m 0,10.9375 a 2.1875,2.1875 0 0 1 2.1875,-2.1875 h 39.375 a 2.1875,2.1875 0 0 1 0,4.375 H 15.3125 A 2.1875,2.1875 0 0 1 13.125,26.25 Z m 0,10.9375 A 2.1875,2.1875 0 0 1 15.3125,35 h 21.875 a 2.1875,2.1875 0 0 1 0,4.375 H 15.3125 A 2.1875,2.1875 0 0 1 13.125,37.1875 Z"
       style="stroke-width:4.375" />
  </g>
</svg>
