<svg viewBox="0 0 100 100" xmlns="http://www.w3.org/2000/svg"><path d="m84.999998 17.819825v48.125h-45.014641l-16.235355 16.23535v-16.23535h-8.749999v-48.125zm-4.375 4.375h-61.249996v39.375h8.749995v10.01465l10.01465-10.01465h42.48535zm-21.875001 21.875h-4.375v-8.75h8.75v8.75q0 .92285-.34179 1.70899-.341801.78613-.939941 1.38427-.598149.59815-1.384279.93994-.78613.3418-1.70899.3418zm-17.5 0h-4.375v-8.75h8.75v8.75q0 .92285-.34179 1.70899-.341801.78613-.939941 1.38427-.598149.59815-1.384279.93994-.78613.3418-1.70899.3418z"/></svg>