<?xml version="1.0" encoding="UTF-8" standalone="no"?>
<svg
   viewBox="0 0 100 100"
   xmlns="http://www.w3.org/2000/svg"
   xmlns:svg="http://www.w3.org/2000/svg">
  <path
     d="m 78.4375,28.125 a 2.1875,2.1875 0 0 1 2.1875,2.1875 v 39.375 A 2.1875,2.1875 0 0 1 78.4375,71.875 H 21.5625 A 2.1875,2.1875 0 0 1 19.375,69.6875 V 30.3125 A 2.1875,2.1875 0 0 1 21.5625,28.125 Z M 21.5625,23.75 A 6.5625,6.5625 0 0 0 15,30.3125 v 39.375 a 6.5625,6.5625 0 0 0 6.5625,6.5625 h 56.875 A 6.5625,6.5625 0 0 0 85,69.6875 V 30.3125 A 6.5625,6.5625 0 0 0 78.4375,23.75 Z"
     style="stroke-width:4.375" />
  <path
     d="m 28.125,39.0625 a 2.1875,2.1875 0 0 1 2.1875,-2.1875 h 39.375 a 2.1875,2.1875 0 0 1 0,4.375 H 30.3125 A 2.1875,2.1875 0 0 1 28.125,39.0625 Z m 0,10.9375 a 2.1875,2.1875 0 0 1 2.1875,-2.1875 h 39.375 a 2.1875,2.1875 0 0 1 0,4.375 H 30.3125 A 2.1875,2.1875 0 0 1 28.125,50 Z m 0,10.9375 A 2.1875,2.1875 0 0 1 30.3125,58.75 h 26.25 a 2.1875,2.1875 0 0 1 0,4.375 h -26.25 A 2.1875,2.1875 0 0 1 28.125,60.9375 Z"
     style="stroke-width:4.375" />
</svg>
