<svg fill="none" height="100" viewBox="0 0 100 100" width="100" xmlns="http://www.w3.org/2000/svg"><path d="m36.333334 81.78333a1.6125 1.6125 0 0 0 -1.6125 1.60834 1.6125 1.6125 0 0 0 1.6125 1.60833h27.333333a1.6125 1.6125 0 0 0 1.6125-1.60833 1.6125 1.6125 0 0 0 -1.6125-1.60834zm13.666666-12.074997a1.5208333 1.5208333 0 0 0 -1.520833 1.520834v12.158333a1.5208333 1.5208333 0 0 0 1.520833 1.52083 1.5208333 1.5208333 0 0 0 1.520833-1.52083v-12.158333a1.5208333 1.5208333 0 0 0 -1.520833-1.520834zm-21.279166-27.354166a1.5208333 1.5208333 0 0 0 -1.516667 1.516666v6.083334a22.820833 22.820833 0 0 0 22.795833 22.795833 22.820833 22.820833 0 0 0 22.795833-22.791667v-6.083333a1.5208333 1.5208333 0 0 0 -1.516666-1.516667 1.5208333 1.5208333 0 0 0 -1.520833 1.516667v6.083333a19.733333 19.733333 0 0 1 -19.758334 19.75 19.733333 19.733333 0 0 1 -19.758334-19.758333v-6.075a1.5208333 1.5208333 0 0 0 -1.520832-1.516667zm21.279166-27.354167a10.6625 10.6625 0 0 0 -10.637501 10.6375v24.316667c0 3.420833 1.333334 6.175 3.358334 7.975 2.025 1.795833 4.6625 2.666666 7.279167 2.666666s5.254166-.870833 7.279167-2.666666c2.020832-1.8 3.358333-4.554167 3.358333-7.975v-24.316667a10.6625 10.6625 0 0 0 -10.6375-10.6375zm0 3.041667c4.216667 0 7.599999 3.383333 7.599999 7.595833v24.316667c0 2.6625-.941666 4.466666-2.341666 5.708333-1.395834 1.2375-3.316667 1.891667-5.258334 1.891667-1.941666 0-3.8625-.654167-5.258333-1.891667-1.4-1.241667-2.341667-3.045833-2.341667-5.708333v-24.316667c0-4.2125 3.383334-7.595833 7.600001-7.595833z" fill="#000"/></svg>