<?xml version="1.0" encoding="UTF-8" standalone="no"?>
<svg
   stroke-width="0.1"
   fill="currentColor"
   stroke="currentColor"
   viewBox="0 0 100 100"
   width="100"
   height="100"
   xmlns="http://www.w3.org/2000/svg"
   xmlns:svg="http://www.w3.org/2000/svg">
  <g
     transform="matrix(4.3478261,0,0,4.3478261,15.217391,15.217391)">
    <path
       d="M 14.5,3 A 0.5,0.5 0 0 1 15,3.5 v 9 A 0.5,0.5 0 0 1 14.5,13 H 1.5 A 0.5,0.5 0 0 1 1,12.5 v -9 A 0.5,0.5 0 0 1 1.5,3 Z M 1.5,2 A 1.5,1.5 0 0 0 0,3.5 v 9 A 1.5,1.5 0 0 0 1.5,14 h 13 A 1.5,1.5 0 0 0 16,12.5 v -9 A 1.5,1.5 0 0 0 14.5,2 Z"
       fill="currentColor"
       stroke="currentColor" />
    <path
       d="M 7,5.5 A 0.5,0.5 0 0 1 7.5,5 h 5 a 0.5,0.5 0 0 1 0,1 h -5 A 0.5,0.5 0 0 1 7,5.5 Z M 5.504,4.646 a 0.5,0.5 0 0 1 0,0.708 l -1.5,1.5 a 0.5,0.5 0 0 1 -0.708,0 l -0.5,-0.5 A 0.5006316,0.5006316 0 1 1 3.504,5.646 L 3.65,5.793 4.796,4.646 a 0.5,0.5 0 0 1 0.708,0 z M 7,9.5 A 0.5,0.5 0 0 1 7.5,9 h 5 a 0.5,0.5 0 0 1 0,1 h -5 A 0.5,0.5 0 0 1 7,9.5 Z M 5.504,8.646 a 0.5,0.5 0 0 1 0,0.708 l -1.5,1.5 a 0.5,0.5 0 0 1 -0.708,0 l -0.5,-0.5 A 0.5006316,0.5006316 0 0 1 3.504,9.646 L 3.65,9.793 4.796,8.646 a 0.5,0.5 0 0 1 0.708,0 z"
       fill="currentColor"
       stroke="currentColor" />
  </g>
</svg>
