<?xml version="1.0" encoding="UTF-8" standalone="no"?>
<svg
   fill="#d74417"
   viewBox="0 0 100 100"
   xmlns="http://www.w3.org/2000/svg"
   xmlns:svg="http://www.w3.org/2000/svg">
  <g
     transform="translate(15.000471,15.000536)">
    <path
       d="M 15.987339,5.810813 A 2.9661571,2.9661571 0 0 0 11.546853,5.5351967 L 7.0232444,10.06318 C 4.9101856,12.180614 4.13146,15.177395 5.0545561,17.806687 A 76.857593,76.857593 0 0 0 23.288985,46.715782 76.861968,76.861968 0 0 0 52.19808,64.950211 c 2.629292,0.923096 5.626073,0.14437 7.743507,-1.968688 l 4.523608,-4.523609 A 2.9661571,2.9661571 0 0 0 64.189579,54.017428 L 54.09677,46.168924 a 2.9661571,2.9661571 0 0 0 -2.53742,-0.533733 l -9.58095,2.39305 A 7.6341359,7.6341359 0 0 1 34.729252,46.020179 L 23.984588,35.27114 a 7.6341359,7.6341359 0 0 1 -2.012437,-7.249148 l 2.397425,-9.58095 a 2.9661571,2.9661571 0 0 0 -0.533733,-2.53742 z M 8.2438312,2.23655 A 7.6341359,7.6341359 0 0 1 19.670973,2.9496526 l 7.848505,10.0884344 c 1.439329,1.850567 1.946814,4.261116 1.378081,6.536045 l -2.39305,9.58095 a 2.9661571,2.9661571 0 0 0 0.778726,2.813037 l 10.749038,10.749038 a 2.9661571,2.9661571 0 0 0 2.817412,0.778726 l 9.576575,-2.39305 a 7.6341359,7.6341359 0 0 1 6.536045,1.378082 l 10.088435,7.848504 c 3.626761,2.821786 3.959251,8.180994 0.713102,11.422767 l -4.523608,4.523608 c -3.237399,3.237399 -8.075997,4.659229 -12.586481,3.071154 A 81.521197,81.521197 0 0 1 19.985963,50.010054 81.521197,81.521197 0 0 1 0.64906906,19.346639 C -0.93463134,14.84053 0.48719913,9.9975569 3.7245977,6.7601583 L 8.2482061,2.23655 Z"
       style="stroke-width:4.37486" />
    <path
       fill-rule="evenodd"
       d="m 48.763812,7.2020195 a 2.1874315,2.1874315 0 0 1 3.097403,0 l 5.013593,5.0179675 5.013593,-5.0179675 a 2.1901947,2.1901947 0 0 1 3.097403,3.0974025 l -5.017968,5.013593 5.017968,5.013593 a 2.1901947,2.1901947 0 0 1 -3.097403,3.097403 l -5.013593,-5.017967 -5.013593,5.017967 a 2.1901947,2.1901947 0 0 1 -3.097403,-3.097403 l 5.017968,-5.013593 -5.017968,-5.013593 a 2.1874315,2.1874315 0 0 1 0,-3.0974025 z"
       style="stroke-width:4.37486" />
  </g>
</svg>
