<?xml version="1.0" encoding="UTF-8" standalone="no"?>
<svg
   fill="#198754"
   viewBox="0 0 100 100"
   xmlns="http://www.w3.org/2000/svg"
   xmlns:svg="http://www.w3.org/2000/svg">
  <path
     d="m 30.98781,20.811349 a 2.9661571,2.9661571 0 0 0 -4.440486,-0.275617 l -4.523609,4.527984 c -2.113059,2.117434 -2.891784,5.114215 -1.968688,7.743507 a 76.857593,76.857593 0 0 0 18.234429,28.909095 76.861968,76.861968 0 0 0 28.909095,18.234429 c 2.629292,0.923096 5.626073,0.14437 7.743507,-1.968688 L 79.465666,73.45845 A 2.9661571,2.9661571 0 0 0 79.19005,69.017964 L 69.097241,61.16946 a 2.9661571,2.9661571 0 0 0 -2.53742,-0.533733 l -9.58095,2.39305 A 7.6341359,7.6341359 0 0 1 49.729723,61.020715 L 38.985059,50.271676 a 7.6341359,7.6341359 0 0 1 -2.012437,-7.249148 l 2.397425,-9.58095 a 2.9661571,2.9661571 0 0 0 -0.533733,-2.53742 z m -7.743508,-3.574263 a 7.6341359,7.6341359 0 0 1 11.427142,0.713102 l 7.848505,10.088435 c 1.439329,1.850567 1.946814,4.261116 1.378081,6.536045 l -2.39305,9.58095 a 2.9661571,2.9661571 0 0 0 0.778726,2.813037 l 10.749038,10.749038 a 2.9661571,2.9661571 0 0 0 2.817412,0.778726 l 9.576575,-2.39305 a 7.6341359,7.6341359 0 0 1 6.536045,1.378082 l 10.088435,7.848504 c 3.626761,2.821786 3.959251,8.180994 0.713102,11.422767 l -4.523608,4.523608 c -3.237399,3.237399 -8.075997,4.659229 -12.586481,3.071154 A 81.521197,81.521197 0 0 1 34.986434,65.01059 81.521197,81.521197 0 0 1 15.64954,34.347175 c -1.583701,-4.506109 -0.16187,-9.349082 3.075529,-12.586481 l 4.523608,-4.523608 z"
     style="stroke-width:4.37486" />
</svg>
