<svg viewBox="0 0 100 100" xmlns="http://www.w3.org/2000/svg"><path d="m78.731347 21.343285q2.53731 0 4.402981 1.86567 1.86567 1.86567 1.86567 4.55224v44.47761q0 2.68657-1.86567 4.55224-1.86567 1.86567-4.402981 1.86567h-22.388059v-6.41791h22.388059v-44.47761h-57.313435v9.55224h-6.41791v-9.55224q0-2.68657 1.865672-4.55224 1.865671-1.86567 4.552238-1.86567zm-63.731345 47.76119q4.029851 0 6.791045 2.7612 2.761193 2.76119 2.761193 6.79104h-9.552238zm0-12.68656q9.253731 0 15.746268 6.49253 6.492537 6.49254 6.492537 15.74627h-6.268658q0-6.56716-4.70149-11.26865-4.701493-4.7015-11.268657-4.7015zm0-12.83582q14.477611 0 24.776119 10.2985 10.298506 10.29851 10.298506 24.77612h-6.41791q0-11.94029-8.358207-20.2985-8.358209-8.35821-20.298508-8.35821z"/></svg>