<!-- Generated by IcoMoon.io -->
<svg version="1.1" xmlns="http://www.w3.org/2000/svg" width="32" height="32" viewBox="0 0 32 32">
<title>highlighter-tool</title>
<path d="M26.884 8.911l-0.457-0.457 0.056-0.056c0.030-0.030 0.046-0.070 0.046-0.113s-0.017-0.083-0.046-0.113l-2.247-2.247c-0.062-0.062-0.163-0.062-0.225 0l-0.056 0.056-0.457-0.457c-0.408-0.409-1.121-0.409-1.53 0l-4.96 4.96c-0.062 0.062-0.062 0.163-0 0.225l-10.019 10.019c-0.013 0.013-0.021 0.028-0.029 0.043-0.001 0.002-0.003 0.004-0.004 0.007-0.012 0.027-0.014 0.058-0.009 0.089 0.001 0.003-0.002 0.006-0.001 0.010 0.006 0.027 0.6 2.722-0.75 4.072-0.062 0.062-0.062 0.163 0 0.225l0.032 0.032-1.378 1.301c-0.047 0.045-0.062 0.114-0.038 0.174s0.083 0.1 0.148 0.1h1.573c0.042 0 0.083-0.017 0.113-0.046l0.556-0.556 0.035 0.035c0.031 0.031 0.072 0.046 0.113 0.046s0.081-0.016 0.113-0.046c0.734-0.734 1.864-0.888 2.684-0.888 0.775 0 1.383 0.136 1.388 0.137 0.003 0.001 0.006-0.002 0.010-0.001 0.009 0.002 0.017 0.005 0.026 0.005 0.022 0 0.043-0.005 0.063-0.014 0.002-0.001 0.003-0.002 0.005-0.003 0.016-0.008 0.031-0.017 0.045-0.030l10.019-10.019c0.030 0.030 0.070 0.046 0.112 0.046s0.083-0.017 0.113-0.046l4.96-4.96c0.422-0.422 0.422-1.108-0-1.53zM26.145 8.286l-6.387 6.387c-0.224 0.224-0.615 0.224-0.839 0l-1.183-1.183c-0.231-0.231-0.231-0.607 0-0.839l6.386-6.387zM17.295 11.297l0.672 0.672-0.113 0.113-0.672-0.672c-0.031-0.031-0.031-0.081 0-0.113s0.081-0.031 0.113 0zM20.89 15.117l-0.563-0.563 0.113-0.113 0.619 0.619c0.031 0.031 0.031 0.081 0 0.113l-9.114 9.114c-0.016 0.016-0.036 0.023-0.056 0.023s-0.041-0.008-0.056-0.023c-0.031-0.031-0.031-0.081 0-0.113zM11.246 24.986c-0.002 0.002-0.004 0.001-0.006 0.003-0.008 0.007-0.018 0.009-0.028 0.012-0.008 0.002-0.014 0.009-0.022 0.009-0.002 0-0.004-0.002-0.006-0.003s-0.004 0.002-0.006 0.002c-0.049-0.008-0.102-0.015-0.155-0.022-1.029-0.133-2.795-0.126-3.6 0.68-0.016 0.016-0.036 0.023-0.056 0.023s-0.041-0.008-0.056-0.023c-0.031-0.031-0.031-0.081 0-0.113 0.896-0.896 2.734-0.827 3.533-0.747 0.046 0.004 0.087 0.009 0.126 0.014l-3.303-3.303c-0.031-0.031-0.031-0.081 0-0.113s0.081-0.031 0.112 0l3.468 3.468c0.002 0.002 0.001 0.004 0.003 0.006 0.007 0.008 0.008 0.017 0.011 0.028s0.008 0.018 0.007 0.029c0 0.002 0.002 0.004 0.002 0.006-0.001 0.009-0.009 0.013-0.013 0.021s-0.003 0.017-0.010 0.024zM22.193 5.75c0.288-0.288 0.791-0.289 1.080 0l0.457 0.457-5.387 5.388-0.997-0.997zM6.466 26.463h-1.107l1.093-1.032 0.305 0.305-0.366 0.366c-0.031 0.031-0.031 0.081 0 0.113 0.016 0.016 0.036 0.023 0.056 0.023s0.041-0.008 0.056-0.023l0.366-0.366 0.105 0.105zM26.659 10.215l-4.848 4.848-0.228-0.228 4.769-4.769c0.214-0.214 0.207-0.57-0.017-0.794-0.031-0.031-0.081-0.031-0.113 0s-0.031 0.081 0 0.113c0.161 0.161 0.169 0.417 0.017 0.569l-4.769 4.769-0.656-0.656 5.388-5.388 0.457 0.457c0.298 0.298 0.298 0.782-0 1.080zM25.433 8.278l-5.862 5.862c-0.031 0.031-0.031 0.081 0 0.113 0.016 0.016 0.036 0.023 0.056 0.023s0.041-0.008 0.056-0.023l5.918-5.918c0.031-0.031 0.031-0.081 0-0.113l-1.38-1.38c-0.031-0.031-0.081-0.031-0.113 0s-0.031 0.081 0 0.113z"></path>
</svg>
