<!-- Generated by IcoMoon.io -->
<svg version="1.1" xmlns="http://www.w3.org/2000/svg" width="32" height="32" viewBox="0 0 32 32">
<title>latex-tool</title>
<path d="M12.726 10.020h-7.701l-0.225 2.95h0.24c0.172-2.209 0.362-2.596 2.43-2.596 0.24 0 0.629 0 0.736 0 0.255 0.040 0.255 0.202 0.255 0.509v7.26c0 0.482-0.040 0.629-1.164 0.629h-0.379v0.322c0.64-0.012 1.307-0.025 1.961-0.025 0.652 0 1.321 0.013 1.96 0.025v-0.322h-0.372c-1.107 0-1.147-0.147-1.147-0.629v-7.26c0-0.295 0-0.454 0.24-0.509h0.732c2.041 0 2.24 0.385 2.413 2.596h0.24zM19.419 18.628h-0.24c-0.292 1.978-0.465 3.053-2.811 3.053h-1.851c-0.533 0-0.558-0.067-0.558-0.526v-3.728h1.258c1.258 0 1.378 0.461 1.378 1.587h0.214v-3.469h-0.214c0 1.107-0.12 1.559-1.378 1.559h-1.258v-3.305c0-0.45 0.025-0.518 0.558-0.518h1.823c2.064 0 2.304 0.82 2.491 2.584h0.24l-0.32-2.95h-6.753v0.366c0.945 0 1.096 0 1.096 0.6v7.197c0 0.6-0.149 0.6-1.096 0.6v0.322h6.94zM23.014 14.046l1.973-2.853c0.198-0.28 0.6-0.856 1.694-0.871v-0.322c-0.305 0.025-0.812 0.025-1.132 0.025-0.439 0-0.987 0-1.319-0.025v0.322c0.427 0.040 0.532 0.307 0.532 0.522 0 0.159-0.065 0.267-0.16 0.4l-1.761 2.554-1.973-2.888c-0.093-0.145-0.106-0.187-0.106-0.227 0-0.12 0.145-0.347 0.587-0.36v-0.322c-0.427 0.025-1.079 0.025-1.519 0.025-0.345 0-1.012 0-1.334-0.025v0.322c0.732 0 0.972 0.028 1.267 0.442l2.573 3.779-2.32 3.389c-0.572 0.829-1.439 0.843-1.694 0.843v0.322c0.305-0.025 0.812-0.025 1.132-0.025 0.36 0 0.987 0 1.319 0.025v-0.322c-0.413-0.040-0.532-0.307-0.532-0.522 0-0.172 0.065-0.267 0.133-0.362l2.133-3.113 2.32 3.41c0.105 0.148 0.105 0.187 0.105 0.227 0 0.105-0.119 0.334-0.587 0.362v0.322c0.427-0.025 1.079-0.025 1.519-0.025 0.345 0 1.012 0 1.336 0.025v-0.322c-0.854 0-0.989-0.065-1.254-0.442z"></path>
</svg>
