<!-- Generated by IcoMoon.io -->
<svg version="1.1" xmlns="http://www.w3.org/2000/svg" width="32" height="32" viewBox="0 0 32 32">
<title>zoom-in-tool</title>
<path d="M26.927 25.194c-0.444 0.577-1.271 0.684-1.847 0.241l-0.701-0.539 1.607-2.087 0.7 0.539c0.577 0.443 0.684 1.271 0.241 1.847zM24.001 24.605l-5.496-4.229c-1.498 1.409-3.466 2.198-5.569 2.198-1.808 0-3.523-0.584-4.959-1.689-1.724-1.326-2.827-3.244-3.108-5.4s0.294-4.292 1.621-6.016c1.553-2.019 3.907-3.177 6.457-3.177 1.808 0 3.523 0.584 4.959 1.689 3.202 2.464 4.060 6.858 2.205 10.306l5.497 4.23zM18.020 18.34c2.154-2.8 1.629-6.831-1.171-8.986-1.131-0.87-2.48-1.33-3.903-1.33-2.008 0-3.86 0.911-5.083 2.5-1.043 1.357-1.497 3.038-1.275 4.736s1.090 3.207 2.447 4.25c1.13 0.87 2.48 1.33 3.903 1.33 2.008-0 3.861-0.911 5.083-2.5zM17.552 13.518h-3.504v-3.504h-2.213v3.504h-3.504v2.213h3.504v3.504h2.213v-3.504h3.504z"></path>
</svg>
