<!-- Generated by IcoMoon.io -->
<svg version="1.1" xmlns="http://www.w3.org/2000/svg" width="32" height="32" viewBox="0 0 32 32">
<title>select-group-tool</title>
<path d="M26.557 21.841c-0.355 0-0.643 0.288-0.643 0.643v2.572h-2.572c-0.355 0-0.643 0.288-0.643 0.643s0.288 0.643 0.643 0.643h3.215c0.355 0 0.643-0.288 0.643-0.643v-3.215c0-0.355-0.288-0.643-0.643-0.643zM19.671 25.057h-7.342c-0.355 0-0.643 0.288-0.643 0.643s0.288 0.643 0.643 0.643h7.342c0.355 0 0.643-0.288 0.643-0.643s-0.288-0.643-0.643-0.643zM8.658 25.057h-2.572v-2.572c0-0.355-0.288-0.643-0.643-0.643s-0.643 0.288-0.643 0.643v3.215c0 0.355 0.288 0.643 0.643 0.643h3.215c0.355 0 0.643-0.288 0.643-0.643s-0.288-0.643-0.643-0.643zM5.443 19.885c0.355 0 0.643-0.288 0.643-0.643v-6.484c0-0.355-0.288-0.643-0.643-0.643s-0.643 0.288-0.643 0.643v6.484c0 0.355 0.288 0.643 0.643 0.643zM8.658 5.657h-3.215c-0.355 0-0.643 0.288-0.643 0.643v3.215c0 0.355 0.288 0.643 0.643 0.643s0.643-0.288 0.643-0.643v-2.572h2.572c0.355 0 0.643-0.288 0.643-0.643s-0.288-0.643-0.643-0.643zM19.671 5.657h-7.342c-0.355 0-0.643 0.288-0.643 0.643s0.288 0.643 0.643 0.643h7.342c0.355 0 0.643-0.288 0.643-0.643s-0.288-0.643-0.643-0.643zM26.557 5.657h-3.215c-0.355 0-0.643 0.288-0.643 0.643s0.288 0.643 0.643 0.643h2.572v2.572c0 0.355 0.288 0.643 0.643 0.643s0.643-0.288 0.643-0.643v-3.215c0-0.355-0.288-0.643-0.643-0.643zM26.557 12.115c-0.355 0-0.643 0.288-0.643 0.643v6.484c0 0.355 0.288 0.643 0.643 0.643s0.643-0.288 0.643-0.643v-6.484c0-0.355-0.288-0.643-0.643-0.643z"></path>
</svg>
