<!-- Generated by IcoMoon.io -->
<svg version="1.1" xmlns="http://www.w3.org/2000/svg" width="32" height="32" viewBox="0 0 32 32">
<title>pointer-tool</title>
<path d="M16 7.688c-4.578 0-8.313 3.734-8.313 8.313s3.734 8.313 8.313 8.313c4.578 0 8.313-3.734 8.313-8.313s-3.734-8.313-8.313-8.313zM16 9.781c3.447 0 6.219 2.772 6.219 6.219s-2.772 6.219-6.219 6.219c-3.447 0-6.219-2.772-6.219-6.219s2.772-6.219 6.219-6.219z"></path>
<path d="M19.207 16c0 1.771-1.436 3.207-3.207 3.207v0c-1.771 0-3.207-1.436-3.207-3.207v0c0-1.771 1.436-3.207 3.207-3.207v0c1.771 0 3.207 1.436 3.207 3.207v0z"></path>
<path d="M16 6.4c-5.3 0-9.6 4.3-9.6 9.6s4.3 9.6 9.6 9.6c5.3 0 9.6-4.3 9.6-9.6s-4.3-9.6-9.6-9.6zM16 6.793c5.087 0 9.207 4.12 9.207 9.207s-4.12 9.207-9.207 9.207c-5.087 0-9.207-4.12-9.207-9.207s4.12-9.207 9.207-9.207z"></path>
</svg>
