<!-- Generated by IcoMoon.io -->
<svg version="1.1" xmlns="http://www.w3.org/2000/svg" width="32" height="32" viewBox="0 0 32 32">
<title>next-page</title>
<path d="M4.8 16c0-0.773 0.627-1.4 1.4-1.4h16.219l-6.011-6.008c-0.254-0.254-0.411-0.604-0.411-0.991 0-0.774 0.628-1.402 1.402-1.402 0.387 0 0.737 0.157 0.991 0.411l8.399 8.399c0.254 0.253 0.411 0.604 0.411 0.991s-0.157 0.738-0.411 0.991l-8.399 8.399c-0.254 0.254-0.604 0.41-0.991 0.41-0.774 0-1.402-0.628-1.402-1.402 0-0.387 0.157-0.737 0.41-0.991l6.011-6.008h-16.219c-0.773 0-1.4-0.627-1.4-1.4v0z"></path>
</svg>
