<!-- Generated by IcoMoon.io -->
<svg version="1.1" xmlns="http://www.w3.org/2000/svg" width="32" height="32" viewBox="0 0 32 32">
<title>extend-tool</title>
<path d="M17.734 24.8h-1.619c-0.221 0-0.4 0.179-0.4 0.4s0.179 0.4 0.4 0.4h1.619c0.222 0 0.4-0.179 0.4-0.4s-0.179-0.4-0.4-0.4zM13.686 24.8h-1.619c-0.221 0-0.4 0.179-0.4 0.4s0.179 0.4 0.4 0.4h1.619c0.222 0 0.4-0.179 0.4-0.4s-0.179-0.4-0.4-0.4zM9.638 24.8h-1.619c-0.221 0-0.4 0.179-0.4 0.4s0.179 0.4 0.4 0.4h1.619c0.222 0 0.4-0.179 0.4-0.4s-0.179-0.4-0.4-0.4zM17.6 16.4v-8.8c0-0.662-0.538-1.2-1.2-1.2h-8.8c-0.662 0-1.2 0.538-1.2 1.2v8.8c0 0.662 0.538 1.2 1.2 1.2h8.8c0.662 0 1.2-0.538 1.2-1.2zM7.2 16.4v-8.8c0-0.221 0.179-0.4 0.4-0.4h8.8c0.221 0 0.4 0.179 0.4 0.4v8.8c0 0.221-0.179 0.4-0.4 0.4h-8.8c-0.221 0-0.4-0.179-0.4-0.4zM18.8 7.2h0.8c0.221 0 0.4-0.179 0.4-0.4s-0.179-0.4-0.4-0.4h-0.8c-0.221 0-0.4 0.179-0.4 0.4s0.179 0.4 0.4 0.4zM6.8 21.629c-0.221 0-0.4 0.179-0.4 0.4v1.619c0 0.221 0.179 0.4 0.4 0.4s0.4-0.179 0.4-0.4v-1.619c0-0.221-0.179-0.4-0.4-0.4zM6.8 18.4c-0.221 0-0.4 0.179-0.4 0.4v0.8c0 0.221 0.179 0.4 0.4 0.4s0.4-0.179 0.4-0.4v-0.8c0-0.221-0.179-0.4-0.4-0.4zM25.2 15.73c-0.221 0-0.4 0.179-0.4 0.4v1.619c0 0.221 0.179 0.4 0.4 0.4s0.4-0.178 0.4-0.4v-1.619c0-0.221-0.179-0.4-0.4-0.4zM21.782 24.8h-1.619c-0.221 0-0.4 0.179-0.4 0.4s0.179 0.4 0.4 0.4h1.619c0.221 0 0.4-0.179 0.4-0.4s-0.179-0.4-0.4-0.4zM25.2 19.779c-0.221 0-0.4 0.179-0.4 0.4v1.619c0 0.221 0.179 0.4 0.4 0.4s0.4-0.179 0.4-0.4v-1.619c0-0.221-0.179-0.4-0.4-0.4zM25.2 7.635c-0.221 0-0.4 0.179-0.4 0.4v1.619c0 0.221 0.179 0.4 0.4 0.4s0.4-0.179 0.4-0.4v-1.619c0-0.221-0.179-0.4-0.4-0.4zM25.2 11.682c-0.221 0-0.4 0.179-0.4 0.4v1.619c0 0.221 0.179 0.4 0.4 0.4s0.4-0.178 0.4-0.4v-1.619c0-0.221-0.179-0.4-0.4-0.4zM22.8 19.2c-0.221 0-0.4 0.179-0.4 0.4v2.235l-4.118-4.118c-0.156-0.156-0.41-0.156-0.566 0s-0.156 0.41 0 0.566l4.117 4.117h-2.234c-0.221 0-0.4 0.179-0.4 0.4s0.179 0.4 0.4 0.4h3.2c0.052 0 0.104-0.010 0.153-0.031 0.044-0.018 0.083-0.046 0.118-0.078 0.003-0.003 0.008-0.004 0.012-0.008 0.037-0.037 0.066-0.082 0.086-0.13 0.011-0.028 0.013-0.057 0.018-0.086 0.004-0.022 0.014-0.042 0.014-0.066v-3.2c0-0.221-0.179-0.4-0.4-0.4zM25.2 23.826c-0.221 0-0.4 0.179-0.4 0.4v0.174c0 0.221-0.179 0.4-0.4 0.4h-0.189c-0.221 0-0.4 0.179-0.4 0.4s0.179 0.4 0.4 0.4h0.189c0.662 0 1.2-0.538 1.2-1.2v-0.174c0-0.221-0.179-0.4-0.4-0.4zM24.063 6.8c0-0.221-0.179-0.4-0.4-0.4h-1.619c-0.221 0-0.4 0.179-0.4 0.4s0.179 0.4 0.4 0.4h1.619c0.221 0 0.4-0.179 0.4-0.4z"></path>
</svg>
