<!-- Generated by IcoMoon.io -->
<svg version="1.1" xmlns="http://www.w3.org/2000/svg" width="32" height="32" viewBox="0 0 32 32">
<title>collection</title>
<path d="M8.3 10.4c-0.387 0-0.7-0.313-0.7-0.7s0.313-0.7 0.7-0.7v0h15.4c0.387 0 0.7 0.313 0.7 0.7s-0.313 0.7-0.7 0.7v0zM11.1 7.6c-0.387 0-0.7-0.313-0.7-0.7s0.313-0.7 0.7-0.7v0h9.8c0.387 0 0.7 0.313 0.7 0.7s-0.313 0.7-0.7 0.7v0zM4.8 23.7c0 1.16 0.94 2.1 2.1 2.1v0h18.2c1.16 0 2.1-0.94 2.1-2.1v0-9.8c0-1.16-0.94-2.1-2.1-2.1v0h-18.2c-1.16 0-2.1 0.94-2.1 2.1v0zM6.9 24.4c-0.387 0-0.7-0.313-0.7-0.7v0-9.8c0-0.387 0.313-0.7 0.7-0.7v0h18.2c0.387 0 0.7 0.313 0.7 0.7v0 9.8c0 0.387-0.313 0.7-0.7 0.7v0z"></path>
</svg>
