<!-- Generated by IcoMoon.io -->
<svg version="1.1" xmlns="http://www.w3.org/2000/svg" width="32" height="32" viewBox="0 0 32 32">
<title>whiteboard-tool</title>
<path d="M26.080 8.171h-20.16c-0.627 0-1.12 0.493-1.12 1.12v13.418c0 0.627 0.493 1.12 1.12 1.12h20.16c0.627 0 1.12-0.493 1.12-1.12v-13.418c0-0.627-0.493-1.12-1.12-1.12zM10.042 23.067v-0.358c0-0.202 0.179-0.381 0.381-0.381h2.979c0.202 0 0.381 0.157 0.381 0.381v0.381h-3.741zM26.461 22.686c0 0.202-0.157 0.381-0.381 0.381h-11.558v-0.381c0-0.605-0.493-1.12-1.12-1.12h-2.979c-0.627 0-1.12 0.493-1.12 1.12v0.358h-3.36c-0.202 0-0.381-0.157-0.381-0.381v-5.219c0.448-0.022 0.851-0.090 1.21-0.224 0.202-0.067 0.291-0.291 0.224-0.47-0.067-0.202-0.291-0.291-0.47-0.224-0.269 0.090-0.605 0.157-0.963 0.179v-7.414c0-0.202 0.157-0.381 0.381-0.381h20.16c0.202 0 0.381 0.157 0.381 0.381v13.395zM12.192 12.45c-0.202-0.067-0.403 0.022-0.493 0.202-0.067 0.202 0.022 0.403 0.202 0.493 0.358 0.134 0.65 0.403 0.941 0.829 0.067 0.112 0.179 0.157 0.314 0.157 0.067 0 0.157-0.022 0.202-0.067 0.179-0.112 0.224-0.358 0.090-0.515-0.358-0.56-0.762-0.896-1.254-1.098zM10.512 12.338c-0.582 0.134-1.030 0.448-1.434 0.941-0.112 0.157-0.090 0.403 0.067 0.515 0.067 0.045 0.134 0.067 0.224 0.067 0.112 0 0.224-0.045 0.291-0.157 0.269-0.381 0.582-0.582 0.986-0.672 0.202-0.045 0.336-0.246 0.291-0.448-0.022-0.179-0.224-0.291-0.426-0.246zM8.832 14.466c-0.179-0.090-0.403-0.022-0.493 0.157-0.202 0.381-0.426 0.829-0.739 1.165-0.134 0.157-0.134 0.381 0.022 0.515 0.067 0.067 0.157 0.090 0.246 0.090 0.112 0 0.202-0.045 0.269-0.134 0.381-0.426 0.627-0.918 0.851-1.344 0.112-0.134 0.022-0.358-0.157-0.448zM14.23 14.869c-0.090-0.179-0.336-0.246-0.515-0.134-0.179 0.090-0.246 0.336-0.134 0.515 0.224 0.403 0.515 0.896 0.941 1.299 0.067 0.067 0.157 0.112 0.269 0.112 0.090 0 0.202-0.045 0.269-0.112 0.134-0.157 0.134-0.381 0-0.538-0.358-0.358-0.627-0.784-0.829-1.142zM17.12 16.728v0c-0.336 0-0.694-0.045-0.986-0.112-0.202-0.045-0.403 0.067-0.448 0.269s0.067 0.403 0.269 0.448c0.358 0.090 0.739 0.134 1.165 0.134 0 0 0 0 0 0 0.202 0 0.381-0.157 0.381-0.381 0-0.179-0.157-0.358-0.381-0.358zM23.728 11.8c-0.426-0.426-1.165-0.426-1.59 0l-3.293 3.293c-0.045 0.045-0.090 0.112-0.090 0.179l-0.381 1.658c-0.022 0.134 0 0.246 0.112 0.336 0.067 0.067 0.157 0.112 0.269 0.112 0.022 0 0.045 0 0.090 0l1.658-0.358c0.067-0.022 0.134-0.045 0.179-0.090l3.27-3.315c0.202-0.202 0.336-0.493 0.336-0.784s-0.112-0.582-0.336-0.784zM19.427 15.653l0.672 0.672-0.851 0.202zM23.414 13.099l-2.755 2.733-0.762-0.762 2.755-2.755c0.134-0.134 0.381-0.134 0.538 0l0.224 0.224c0.067 0.067 0.112 0.157 0.112 0.269s-0.045 0.202-0.112 0.291zM26.080 8.171h-20.16c-0.627 0-1.12 0.493-1.12 1.12v13.418c0 0.627 0.493 1.12 1.12 1.12h20.16c0.627 0 1.12-0.493 1.12-1.12v-13.418c0-0.627-0.493-1.12-1.12-1.12zM10.042 23.067v-0.358c0-0.202 0.179-0.381 0.381-0.381h2.979c0.202 0 0.381 0.157 0.381 0.381v0.381h-3.741zM26.461 22.686c0 0.202-0.157 0.381-0.381 0.381h-11.558v-0.381c0-0.605-0.493-1.12-1.12-1.12h-2.979c-0.627 0-1.12 0.493-1.12 1.12v0.358h-3.36c-0.202 0-0.381-0.157-0.381-0.381v-5.219c0.448-0.022 0.851-0.090 1.21-0.224 0.202-0.067 0.291-0.291 0.224-0.47-0.067-0.202-0.291-0.291-0.47-0.224-0.269 0.090-0.605 0.157-0.963 0.179v-7.414c0-0.202 0.157-0.381 0.381-0.381h20.16c0.202 0 0.381 0.157 0.381 0.381v13.395zM12.192 12.45c-0.202-0.067-0.403 0.022-0.493 0.202-0.067 0.202 0.022 0.403 0.202 0.493 0.358 0.134 0.65 0.403 0.941 0.829 0.067 0.112 0.179 0.157 0.314 0.157 0.067 0 0.157-0.022 0.202-0.067 0.179-0.112 0.224-0.358 0.090-0.515-0.358-0.56-0.762-0.896-1.254-1.098zM10.512 12.338c-0.582 0.134-1.030 0.448-1.434 0.941-0.112 0.157-0.090 0.403 0.067 0.515 0.067 0.045 0.134 0.067 0.224 0.067 0.112 0 0.224-0.045 0.291-0.157 0.269-0.381 0.582-0.582 0.986-0.672 0.202-0.045 0.336-0.246 0.291-0.448-0.022-0.179-0.224-0.291-0.426-0.246zM8.832 14.466c-0.179-0.090-0.403-0.022-0.493 0.157-0.202 0.381-0.426 0.829-0.739 1.165-0.134 0.157-0.134 0.381 0.022 0.515 0.067 0.067 0.157 0.090 0.246 0.090 0.112 0 0.202-0.045 0.269-0.134 0.381-0.426 0.627-0.918 0.851-1.344 0.112-0.134 0.022-0.358-0.157-0.448zM14.23 14.869c-0.090-0.179-0.336-0.246-0.515-0.134-0.179 0.090-0.246 0.336-0.134 0.515 0.224 0.403 0.515 0.896 0.941 1.299 0.067 0.067 0.157 0.112 0.269 0.112 0.090 0 0.202-0.045 0.269-0.112 0.134-0.157 0.134-0.381 0-0.538-0.358-0.358-0.627-0.784-0.829-1.142zM17.12 16.728v0c-0.336 0-0.694-0.045-0.986-0.112-0.202-0.045-0.403 0.067-0.448 0.269s0.067 0.403 0.269 0.448c0.358 0.090 0.739 0.134 1.165 0.134 0 0 0 0 0 0 0.202 0 0.381-0.157 0.381-0.381 0-0.179-0.157-0.358-0.381-0.358zM23.728 11.8c-0.426-0.426-1.165-0.426-1.59 0l-3.293 3.293c-0.045 0.045-0.090 0.112-0.090 0.179l-0.381 1.658c-0.022 0.134 0 0.246 0.112 0.336 0.067 0.067 0.157 0.112 0.269 0.112 0.022 0 0.045 0 0.090 0l1.658-0.358c0.067-0.022 0.134-0.045 0.179-0.090l3.27-3.315c0.202-0.202 0.336-0.493 0.336-0.784s-0.112-0.582-0.336-0.784zM19.427 15.653l0.672 0.672-0.851 0.202zM23.414 13.099l-2.755 2.733-0.762-0.762 2.755-2.755c0.134-0.134 0.381-0.134 0.538 0l0.224 0.224c0.067 0.067 0.112 0.157 0.112 0.269s-0.045 0.202-0.112 0.291z"></path>
</svg>
