<!-- Generated by IcoMoon.io -->
<svg version="1.1" xmlns="http://www.w3.org/2000/svg" width="32" height="32" viewBox="0 0 32 32">
<title>pen-tool</title>
<path d="M15.304 14.212l2.484 2.484c-1.51 1.51-8.539 8.539-8.932 8.932-0.44 0.44-0.637 0.193-0.637 0.193l-2.040-2.040s-0.183-0.261 0.193-0.637c0.336-0.336 7.416-7.416 8.932-8.932zM26.789 7.836c0.436-0.436 0.666-1.885-0.037-2.587s-2.152-0.474-2.588-0.038l-0.024 0.024 2.625 2.625zM23.607 5.487l-7.626 7.626c-0.188 0.188-0.302 0.422-0.343 0.665l2.584 2.584c0.244-0.042 0.477-0.155 0.665-0.343l7.625-7.626zM4.823 27.008s-0.051 0.122-0.002 0.17c0.049 0.049 0.17-0.002 0.17-0.002l0.774-0.363-0.579-0.579zM5.289 25.382c-0.203 0.412-0.049 0.596-0.049 0.596l0.782 0.782s0.183 0.123 0.579-0.066c0.397-0.189 1.329-0.761 1.329-0.761l-1.864-1.864c0-0-0.575 0.9-0.778 1.313zM24.806 10.804s2.038 0.073-5.469 5.469c0 0 0.489 0.312 0.945 0.036s7.897-4.545 6.582-7.564z"></path>
</svg>
