<!-- Generated by IcoMoon.io -->
<svg version="1.1" xmlns="http://www.w3.org/2000/svg" width="32" height="32" viewBox="0 0 32 32">
<title>select-tool</title>
<path d="M13.754 15.219c0.076-0.193 0.025-0.413-0.127-0.554l-7.98-7.397c-0.147-0.136-0.36-0.173-0.545-0.093s-0.302 0.262-0.302 0.462v12.068c0 0.222 0.146 0.418 0.358 0.483 0.048 0.014 0.097 0.021 0.146 0.021 0.166 0 0.324-0.082 0.42-0.225l2.959-4.442 4.602-0.005c0.207 0 0.393-0.127 0.469-0.32zM8.413 14.535c-0.168 0-0.326 0.085-0.419 0.225l-2.185 3.279v-9.246l6.191 5.738zM26.948 17.57l-2.199-1.27c-0.156-0.090-0.348-0.090-0.504 0s-0.252 0.257-0.252 0.437v0.737h-3.146v-3.118h0.765c0.002 0 0.003 0 0.005 0 0.279 0 0.504-0.226 0.504-0.504 0-0.116-0.039-0.222-0.105-0.307l-1.238-2.144c-0.090-0.156-0.256-0.252-0.437-0.252s-0.347 0.096-0.437 0.252l-1.27 2.2c-0.090 0.156-0.090 0.348 0 0.504s0.257 0.252 0.437 0.252h0.766v3.118h-3.147v-0.737c0-0.18-0.096-0.347-0.252-0.437s-0.348-0.090-0.504 0l-2.199 1.27c-0.156 0.090-0.252 0.257-0.252 0.437s0.096 0.347 0.252 0.437l2.199 1.27c0.078 0.045 0.165 0.068 0.252 0.068s0.174-0.023 0.252-0.068c0.156-0.090 0.252-0.257 0.252-0.437v-0.794h3.147v3.175h-0.766c-0.18 0-0.347 0.096-0.437 0.252s-0.090 0.349 0 0.504l1.27 2.2c0.090 0.156 0.257 0.252 0.437 0.252s0.347-0.096 0.437-0.252l1.27-2.2c0.090-0.156 0.090-0.349 0-0.504s-0.257-0.252-0.437-0.252h-0.765v-3.175h3.146v0.794c0 0.18 0.096 0.347 0.252 0.437 0.078 0.045 0.165 0.068 0.252 0.068s0.175-0.023 0.252-0.068l2.199-1.27c0.156-0.090 0.252-0.257 0.252-0.437s-0.096-0.347-0.252-0.437zM20.341 12.661l0.396 0.686h-0.792zM15.68 18.403l-0.686-0.396 0.686-0.396zM20.341 23.353l-0.396-0.687h0.792zM25 18.403v-0.792l0.686 0.396z"></path>
</svg>
