<!-- Generated by IcoMoon.io -->
<svg version="1.1" xmlns="http://www.w3.org/2000/svg" width="32" height="32" viewBox="0 0 32 32">
<title>share</title>
<path d="M7.6 25.8c-0.773 0-1.4-0.627-1.4-1.4v0-16.8c0-0.773 0.627-1.4 1.4-1.4v0h16.8c0.773 0 1.4 0.627 1.4 1.4v0 16.8c0 0.773-0.627 1.4-1.4 1.4v0h-6.3c-0.773 0-1.4-0.627-1.4-1.4v0-10.21l3.704 3.706c0.127 0.127 0.302 0.205 0.495 0.205 0.387 0 0.701-0.314 0.701-0.701 0-0.194-0.078-0.369-0.205-0.495l-4.9-4.9c-0.127-0.127-0.302-0.206-0.496-0.206s-0.369 0.079-0.496 0.206v0l-4.9 4.9c-0.127 0.127-0.205 0.302-0.205 0.496 0 0.387 0.314 0.701 0.701 0.701 0.194 0 0.369-0.078 0.496-0.205l3.704-3.706v10.21c0 1.546 1.254 2.8 2.8 2.8v0h6.3c1.546 0 2.8-1.254 2.8-2.8v0-16.8c0-1.546-1.254-2.8-2.8-2.8v0h-16.8c-1.546 0-2.8 1.254-2.8 2.8v0 16.8c0 1.546 1.254 2.8 2.8 2.8v0h3.5c0.387 0 0.7-0.313 0.7-0.7s-0.313-0.7-0.7-0.7v0z"></path>
</svg>
