<!-- Generated by IcoMoon.io -->
<svg version="1.1" xmlns="http://www.w3.org/2000/svg" width="32" height="32" viewBox="0 0 32 32">
<title>text-select-tool</title>
<path d="M4.8 21.793h14.676v-11.586h-14.676zM7.117 19.476h1.545v-6.952h-1.545v-0.772h4.634v0.772h-1.545v3.090h3.862v-3.090h-1.545v-0.772h4.634v0.772h-1.545v6.952h1.545v0.772h-4.634v-0.772h1.545v-3.090h-3.862v3.090h1.545v0.772h-4.634zM26.428 22.566c0.463 0 0.772 0.309 0.772 0.772s-0.309 0.772-0.772 0.772c-0.927 0-1.777-0.463-2.317-1.081-0.541 0.695-1.39 1.081-2.317 1.081-0.463 0-0.772-0.309-0.772-0.772s0.309-0.772 0.772-0.772c0.85 0 1.545-0.695 1.545-1.545h-1.545v-1.545h1.545v-8.497c0-0.85-0.695-1.545-1.545-1.545-0.463 0-0.772-0.309-0.772-0.772s0.309-0.772 0.772-0.772c0.927 0 1.777 0.463 2.317 1.081 0.541-0.695 1.39-1.081 2.317-1.081 0.463 0 0.772 0.309 0.772 0.772s-0.309 0.772-0.772 0.772c-0.85 0-1.545 0.695-1.545 1.545v8.497h1.545v1.545h-1.545c0 0.85 0.695 1.545 1.545 1.545z"></path>
</svg>
