<!-- Generated by IcoMoon.io -->
<svg version="1.1" xmlns="http://www.w3.org/2000/svg" width="32" height="32" viewBox="0 0 32 32">
<title>clone-tool</title>
<path d="M26.065 17.364h-6.71v-1.571c0-0.236-0.192-0.428-0.429-0.428h-1.285v-2.475c1.509-0.641 2.57-2.138 2.57-3.878 0-2.322-1.889-4.212-4.212-4.212s-4.212 1.89-4.212 4.212c0 1.74 1.060 3.237 2.57 3.878v2.475h-1.285c-0.236 0-0.428 0.191-0.428 0.428v1.571h-6.71c-0.236 0-0.428 0.191-0.428 0.428v6.567c0 0.236 0.192 0.428 0.428 0.428h20.13c0.237 0 0.429-0.192 0.429-0.428v-6.567c-0-0.236-0.192-0.428-0.429-0.428zM13.906 7.703c0-0.604 0.49-1.094 1.094-1.094s1.095 0.49 1.095 1.094c0 0.605-0.49 1.095-1.095 1.095s-1.094-0.49-1.094-1.095zM13.502 16.222h4.996v1.166h-4.996zM25.636 23.931h-19.273v-5.71h19.273zM7.077 26.772c0 0.236 0.191 0.428 0.428 0.428h16.989c0.236 0 0.429-0.192 0.429-0.428v-1.285h-17.846z"></path>
</svg>
