<!-- Generated by IcoMoon.io -->
<svg version="1.1" xmlns="http://www.w3.org/2000/svg" width="32" height="32" viewBox="0 0 32 32">
<title>clear-tool</title>
<path d="M22.635 23.286c0.254-3.14 0.516-6.28 0.763-9.421 0.118-1.509-0.745-2.425-2.255-2.425-1.689-0.002-3.377-0.001-5.066-0.001-1.736 0-3.473-0.005-5.208 0.002-1.279 0.005-2.129 0.795-2.17 2.029-0.012 0.339 0.056 0.681 0.087 1.022 0.332 3.607 0.665 7.214 0.995 10.821 0.099 1.081 0.94 1.88 2.023 1.883 2.893 0.006 5.787 0.007 8.679-0.002 1.076-0.002 1.909-0.789 1.999-1.861 0.058-0.682 0.098-1.365 0.154-2.047zM13.332 16.926v6.478c0 0.164 0.002 0.327-0.049 0.49-0.15 0.484-0.561 0.785-1.028 0.744-0.475-0.042-0.841-0.406-0.902-0.898-0.011-0.093-0.015-0.189-0.015-0.282 0.002-2.986 0.004-5.97 0.013-8.955 0.002-0.57 0.438-0.986 0.99-0.982 0.539 0.003 0.976 0.428 0.987 0.998 0.016 0.802 0.004 1.605 0.004 2.407zM16.293 24.538c-0.378 0.169-0.739 0.123-1.057-0.148-0.248-0.212-0.349-0.488-0.347-0.816 0.005-1.498 0.002-2.997 0.002-4.495s-0.004-2.997 0.002-4.496c0.003-0.731 0.555-1.187 1.232-1.033 0.457 0.104 0.745 0.502 0.75 1.065 0.005 0.873 0.002 1.746 0.002 2.619 0 2.112-0.001 4.224 0.001 6.336-0 0.441-0.172 0.781-0.583 0.967zM20.423 23.598c-0.023 0.604-0.463 1.050-1.025 1.044-0.539-0.007-0.959-0.457-0.962-1.061-0.007-1.498-0.002-2.997-0.002-4.495v-4.495c0-0.422 0.166-0.761 0.546-0.961 0.356-0.186 0.712-0.147 1.034 0.085 0.3 0.217 0.408 0.524 0.407 0.893-0.005 2.808-0.003 5.616-0.002 8.423 0 0.189 0.012 0.378 0.004 0.566zM21.692 4.855c-1.064 0.261-2.123 0.542-3.181 0.83-0.278 0.076-0.483 0.052-0.696-0.168-0.355-0.365-0.812-0.476-1.304-0.366-0.54 0.121-1.075 0.262-1.609 0.411-0.471 0.13-0.851 0.409-0.977 0.887-0.103 0.39-0.34 0.507-0.686 0.591-1.225 0.298-2.446 0.614-3.664 0.935-0.685 0.181-1.086 0.797-0.986 1.471 0.090 0.597 0.653 1.064 1.293 1.059 0.189 0.017 0.38-0.050 0.573-0.099 2.579-0.663 5.157-1.328 7.735-1.993 1.404-0.362 2.806-0.723 4.208-1.088 0.518-0.134 0.892-0.43 0.998-0.98 0.198-1.027-0.629-1.757-1.705-1.491z"></path>
</svg>
