<!-- Generated by IcoMoon.io -->
<svg version="1.1" xmlns="http://www.w3.org/2000/svg" width="32" height="32" viewBox="0 0 32 32">
<title>prev-page</title>
<path d="M27.2 16c0 0.773-0.627 1.4-1.4 1.4h-16.219l6.011 6.008c0.254 0.254 0.41 0.604 0.41 0.991 0 0.774-0.628 1.402-1.402 1.402-0.387 0-0.737-0.157-0.991-0.41l-8.399-8.399c-0.254-0.253-0.411-0.604-0.411-0.991s0.157-0.738 0.411-0.991l8.399-8.399c0.254-0.254 0.604-0.411 0.991-0.411 0.774 0 1.402 0.628 1.402 1.402 0 0.387-0.157 0.737-0.411 0.991l-6.011 6.008h16.219c0.773 0 1.4 0.627 1.4 1.4v0z"></path>
</svg>
