<!-- Generated by IcoMoon.io -->
<svg version="1.1" xmlns="http://www.w3.org/2000/svg" width="32" height="32" viewBox="0 0 32 32">
<title>rubber-tool</title>
<path d="M26.653 13.014c0.338-0.338 0.546-0.804 0.546-1.32s-0.209-0.982-0.546-1.32v0l-5.017-5.028c-0.338-0.338-0.804-0.546-1.32-0.546s-0.982 0.209-1.32 0.546l-13.651 13.64c-0.338 0.338-0.546 0.804-0.546 1.32s0.209 0.982 0.546 1.32v0l5.017 5.028c0.267 0.264 0.614 0.448 1.001 0.514l0.011 0.002c0.043 0.019 0.093 0.030 0.146 0.030h12.023c0.206 0 0.373-0.167 0.373-0.373s-0.167-0.373-0.373-0.373v0h-10.344l0.747-0.747h7.652c0.206 0 0.373-0.167 0.373-0.373s-0.167-0.373-0.373-0.373v0h-6.902l0.747-0.747h6.155c0.206 0 0.373-0.167 0.373-0.373s-0.167-0.373-0.373-0.373v0h-5.409l0.467-0.463zM20.214 6.777c0.068-0.068 0.161-0.11 0.265-0.11s0.197 0.042 0.265 0.11l4.479 4.479c0.068 0.068 0.11 0.161 0.11 0.265s-0.042 0.197-0.11 0.265l-0 0c-0.068 0.068-0.161 0.11-0.265 0.11s-0.197-0.042-0.265-0.11l-4.479-4.479c-0.068-0.068-0.11-0.161-0.11-0.265s0.042-0.197 0.11-0.265l0-0zM12.472 26.124c-0.205 0.196-0.483 0.317-0.79 0.317s-0.585-0.121-0.79-0.317l-5.017-5.017c-0.201-0.202-0.326-0.481-0.326-0.79s0.124-0.587 0.326-0.79l-0 0 3.404-3.389 6.581 6.581z"></path>
</svg>
