<!-- Generated by IcoMoon.io -->
<svg version="1.1" xmlns="http://www.w3.org/2000/svg" width="32" height="32" viewBox="0 0 32 32">
<title>grid-tool</title>
<path d="M8.487 25.6c-0.23 0-0.417-0.187-0.417-0.417v-18.365c0-0.23 0.187-0.417 0.417-0.417s0.417 0.187 0.417 0.417v18.365c0 0.23-0.187 0.417-0.417 0.417zM13.496 25.6c-0.23 0-0.417-0.187-0.417-0.417v-18.365c0-0.23 0.187-0.417 0.417-0.417s0.417 0.187 0.417 0.417v18.365c0 0.23-0.187 0.417-0.417 0.417zM18.504 25.6c-0.23 0-0.417-0.187-0.417-0.417v-18.365c0-0.23 0.187-0.417 0.417-0.417s0.417 0.187 0.417 0.417v18.365c0 0.23-0.187 0.417-0.417 0.417zM23.513 25.6c-0.23 0-0.417-0.187-0.417-0.417v-18.365c0-0.23 0.187-0.417 0.417-0.417s0.417 0.187 0.417 0.417v18.365c0 0.23-0.187 0.417-0.417 0.417zM25.183 23.93h-18.365c-0.23 0-0.417-0.187-0.417-0.417s0.187-0.417 0.417-0.417h18.365c0.23 0 0.417 0.187 0.417 0.417s-0.187 0.417-0.417 0.417zM25.183 18.922h-18.365c-0.23 0-0.417-0.187-0.417-0.417s0.187-0.417 0.417-0.417h18.365c0.23 0 0.417 0.187 0.417 0.417s-0.187 0.417-0.417 0.417zM25.183 13.913h-18.365c-0.23 0-0.417-0.187-0.417-0.417s0.187-0.417 0.417-0.417h18.365c0.23 0 0.417 0.187 0.417 0.417s-0.187 0.417-0.417 0.417zM25.183 8.904h-18.365c-0.23 0-0.417-0.187-0.417-0.417s0.187-0.417 0.417-0.417h18.365c0.23 0 0.417 0.187 0.417 0.417s-0.187 0.417-0.417 0.417z"></path>
</svg>
