<!-- Generated by IcoMoon.io -->
<svg version="1.1" xmlns="http://www.w3.org/2000/svg" width="32" height="32" viewBox="0 0 32 32">
<title>pan-tool</title>
<path d="M15.962 6.405c-0.070 0.008-0.131 0.038-0.178 0.084l-2.698 2.698c-0.056 0.055-0.091 0.131-0.091 0.216 0 0.166 0.134 0.3 0.3 0.3 0.002 0 0.005-0 0.007-0h5.396c0.002 0 0.005 0 0.007 0 0.166 0 0.3-0.134 0.3-0.3 0-0.085-0.035-0.161-0.091-0.215l-2.698-2.698c-0.054-0.054-0.129-0.087-0.211-0.087-0.015 0-0.029 0.001-0.043 0.003l0.002-0zM16 7.136l1.967 1.967h-3.935zM9.367 13c-0.070 0.008-0.131 0.039-0.178 0.084l-2.698 2.698c-0.056 0.055-0.091 0.131-0.091 0.215s0.035 0.161 0.091 0.215l0 0 2.698 2.698c0.055 0.056 0.131 0.091 0.216 0.091 0.166 0 0.3-0.134 0.3-0.3 0-0.002-0-0.005-0-0.007v0-5.396c0-0.001 0-0.002 0-0.002 0-0.166-0.134-0.3-0.3-0.3-0.013 0-0.026 0.001-0.039 0.002l0.002-0zM22.558 13c-0.149 0.019-0.262 0.145-0.262 0.297 0 0.001 0 0.002 0 0.002v-0 5.396c-0 0.002-0 0.005-0 0.007 0 0.166 0.134 0.3 0.3 0.3 0.085 0 0.161-0.035 0.215-0.091l2.698-2.698c0.056-0.055 0.091-0.131 0.091-0.215s-0.035-0.161-0.091-0.215l-0-0-2.698-2.698c-0.054-0.054-0.129-0.087-0.211-0.087-0.015 0-0.029 0.001-0.043 0.003l0.002-0zM9.105 14.031v3.935l-1.967-1.967zM22.895 14.031l1.967 1.967-1.967 1.967zM16 14.199c-0.99 0-1.799 0.809-1.799 1.799s0.809 1.799 1.799 1.799c0.99 0 1.799-0.809 1.799-1.799s-0.809-1.799-1.799-1.799zM16 14.799c0.666 0 1.199 0.533 1.199 1.199s-0.533 1.199-1.199 1.199c-0.666 0-1.199-0.533-1.199-1.199s0.533-1.199 1.199-1.199zM13.246 22.293c-0.145 0.023-0.254 0.147-0.254 0.296 0 0.086 0.036 0.164 0.095 0.219l2.698 2.698c0.055 0.056 0.131 0.091 0.215 0.091s0.161-0.035 0.215-0.091l0-0 2.698-2.698c0.056-0.055 0.091-0.131 0.091-0.216 0-0.166-0.134-0.3-0.3-0.3-0.002 0-0.005 0-0.007 0h-5.396c-0.004-0-0.009-0-0.014-0s-0.010 0-0.015 0l0.001-0c-0.004-0-0.009-0-0.014-0s-0.010 0-0.015 0l0.001-0zM14.033 22.893h3.935l-1.967 1.967z"></path>
</svg>
