<?xml version="1.0" standalone="no"?>
<!DOCTYPE svg PUBLIC "-//W3C//DTD SVG 1.1//EN" "http://www.w3.org/Graphics/SVG/1.1/DTD/svg11.dtd" >
<svg xmlns="http://www.w3.org/2000/svg">
<metadata>Generated by IcoMoon</metadata>
<defs>
<font id="icomoon" horiz-adv-x="1024">
<font-face units-per-em="1024" ascent="960" descent="-64" />
<missing-glyph horiz-adv-x="1024" />
<glyph unicode="&#x20;" horiz-adv-x="512" d="" />
<glyph unicode="&#xe900;" glyph-name="arrow-tool" d="M773.82 806.386l-137.020-137.011v-78.815l-362.114-362.114-28.112 74.12-92.973-212.953 212.925 92.973-74.092 28.131 362.123 362.123h78.815l137.029 137.020h-96.525z" />
<glyph unicode="&#xe901;" glyph-name="clear-tool" d="M724.314 214.84c8.118 100.488 16.514 200.968 24.41 301.472 3.774 48.298-23.832 77.6-72.161 77.616-54.046 0.048-108.075 0.032-162.121 0.032-55.544 0-111.12 0.159-166.664-0.063-40.925-0.166-68.134-25.433-69.45-64.915-0.381-10.861 1.776-21.778 2.799-32.695 10.616-115.425 21.271-230.833 31.839-346.274 3.163-34.606 30.079-60.174 64.725-60.269 92.568-0.182 185.168-0.214 277.736 0.048 34.432 0.079 61.102 25.235 63.972 59.548 1.855 21.818 3.14 43.692 4.915 65.502zM426.616 418.369v-207.287c0-5.248 0.048-10.473-1.578-15.682-4.796-15.491-17.941-25.124-32.909-23.816-15.19 1.348-26.9 12.994-28.874 28.723-0.365 2.981-0.476 6.041-0.476 9.038 0.079 95.541 0.143 191.035 0.412 286.568 0.063 18.227 14.009 31.562 31.688 31.411 17.236-0.103 31.244-13.7 31.593-31.942 0.499-25.671 0.143-51.35 0.143-77.013zM521.388 174.795c-12.082-5.415-23.641-3.924-33.829 4.733-7.952 6.771-11.163 15.626-11.099 26.107 0.151 47.941 0.048 95.906 0.048 143.847 0 47.965-0.127 95.906 0.048 143.863 0.103 23.388 17.751 37.975 39.426 33.044 14.635-3.314 23.856-16.054 23.998-34.067 0.166-27.938 0.048-55.877 0.048-83.823 0-67.579-0.032-135.165 0.032-202.76-0.008-14.12-5.51-25.005-18.671-30.943zM653.548 204.866c-0.721-19.329-14.818-33.615-32.79-33.401-17.236 0.222-30.69 14.619-30.769 33.948-0.214 47.941-0.079 95.89-0.079 143.831v143.839c0.016 13.517 5.296 24.347 17.466 30.753 11.401 5.962 22.769 4.693 33.092-2.735 9.593-6.945 13.050-16.76 13.034-28.573-0.174-89.849-0.103-179.697-0.079-269.546 0.008-6.057 0.388-12.082 0.127-18.116zM694.14 804.648c-34.043-8.364-67.943-17.347-101.796-26.567-8.911-2.434-15.46-1.665-22.27 5.367-11.361 11.67-25.98 15.23-41.733 11.702-17.267-3.885-34.4-8.38-51.477-13.137-15.063-4.154-27.241-13.089-31.276-28.382-3.29-12.495-10.877-16.213-21.945-18.916-39.196-9.53-78.258-19.654-117.256-29.928-21.913-5.78-34.757-25.497-31.546-47.077 2.878-19.115 20.89-34.059 41.384-33.9 6.041-0.539 12.154 1.601 18.346 3.163 82.523 21.215 165.015 42.486 247.522 63.773 44.912 11.575 89.801 23.126 134.666 34.812 16.578 4.297 28.557 13.763 31.95 31.363 6.327 32.862-20.129 56.21-54.569 47.727z" />
<glyph unicode="&#xe902;" glyph-name="ellipse-tool" d="M511.993 728.936c-197.613 0-358.393-126.023-358.393-280.936s160.779-280.936 358.393-280.936c197.635 0 358.407 126.023 358.407 280.936s-160.772 280.936-358.4 280.936zM511.993 195.787c-181.764 0-329.648 113.142-329.648 252.213s147.885 252.213 329.663 252.213c181.778 0 329.663-113.142 329.663-252.213s-147.885-252.213-329.67-252.213z" />
<glyph unicode="&#xe903;" glyph-name="highlighter-tool" d="M860.272 674.856l-14.623 14.613 1.782 1.782c0.957 0.957 1.487 2.25 1.487 3.605s-0.54 2.648-1.487 3.605l-71.914 71.903c-1.986 1.986-5.214 1.986-7.2 0l-1.782-1.782-14.613 14.613c-13.065 13.075-35.865 13.075-48.961 0l-158.705-158.715c-1.986-1.986-1.986-5.204-0.010-7.189l-320.597-320.607c-0.407-0.407-0.672-0.886-0.916-1.375-0.041-0.071-0.102-0.132-0.143-0.214-0.377-0.876-0.438-1.853-0.285-2.841 0.020-0.112-0.051-0.204-0.031-0.316 0.204-0.866 19.195-87.097-24.012-130.304-1.986-1.986-1.986-5.214 0-7.2l1.008-1.008-44.083-41.639c-1.507-1.436-1.996-3.635-1.232-5.58 0.774-1.935 2.648-3.208 4.735-3.208h50.325c1.354 0 2.648 0.54 3.605 1.487l17.79 17.8 1.11-1.11c0.998-0.998 2.301-1.487 3.605-1.487s2.607 0.499 3.605 1.487c23.482 23.482 59.653 28.411 85.875 28.411 24.816 0 44.246-4.358 44.429-4.399 0.102-0.020 0.204 0.051 0.305 0.031 0.275-0.051 0.54-0.163 0.825-0.163 0.692 0 1.375 0.163 2.026 0.448 0.051 0.020 0.102 0.071 0.153 0.102 0.509 0.244 1.008 0.53 1.426 0.947l320.597 320.617c0.957-0.947 2.24-1.487 3.584-1.487 1.354 0 2.648 0.54 3.605 1.487l158.725 158.725c13.493 13.503 13.493 35.468-0.010 48.961zM836.636 694.855l-204.387-204.376c-7.169-7.179-19.684-7.169-26.843 0l-37.871 37.871c-7.403 7.403-7.403 19.43 0 26.833l204.366 204.376zM553.452 598.492l21.507-21.507-3.605-3.605-21.507 21.507c-0.998 0.998-0.998 2.607 0 3.605s2.607 0.988 3.605 0zM668.471 476.263l-18.014 18.014 3.605 3.605 19.816-19.816c0.998-0.998 0.998-2.607 0-3.605l-291.646-291.646c-0.499-0.499-1.141-0.743-1.802-0.743s-1.303 0.244-1.802 0.743c-0.998 0.998-0.998 2.607 0 3.605zM359.87 160.453c-0.051-0.051-0.132-0.031-0.193-0.081-0.265-0.234-0.58-0.275-0.906-0.377-0.244-0.071-0.438-0.285-0.692-0.285-0.071 0-0.122 0.071-0.183 0.081-0.071 0.010-0.132-0.061-0.204-0.051-1.568 0.244-3.269 0.468-4.969 0.692-32.932 4.267-89.449 4.022-115.202-21.751-0.499-0.499-1.141-0.743-1.802-0.743s-1.303 0.244-1.802 0.743c-0.998 0.998-0.998 2.607 0 3.605 28.686 28.686 87.484 26.466 113.043 23.91 1.477-0.143 2.78-0.295 4.022-0.438l-105.701 105.691c-0.998 0.998-0.998 2.607 0 3.605 0.998 0.988 2.607 0.988 3.595 0l110.986-110.986c0.051-0.051 0.031-0.132 0.081-0.183 0.224-0.255 0.265-0.56 0.367-0.886 0.102-0.316 0.244-0.58 0.224-0.916 0-0.071 0.061-0.122 0.051-0.204-0.041-0.275-0.285-0.428-0.407-0.672-0.122-0.255-0.102-0.55-0.305-0.754zM710.172 775.995c9.216 9.226 25.315 9.236 34.562 0l14.613-14.613-172.391-172.401-31.894 31.894zM206.909 113.192h-35.417l34.989 33.034 9.755-9.755-11.7-11.7c-0.998-0.998-0.998-2.607 0-3.605 0.499-0.499 1.141-0.743 1.802-0.743s1.303 0.244 1.802 0.743l11.7 11.7 3.371-3.371zM853.072 633.105l-155.12-155.131-7.301 7.301 152.605 152.605c6.863 6.853 6.619 18.248-0.53 25.407-0.998 0.998-2.607 0.998-3.605 0s-0.998-2.607 0-3.605c5.163-5.163 5.397-13.33 0.53-18.208l-152.595-152.605-20.998 20.998 172.401 172.401 14.623-14.613c9.521-9.521 9.521-25.030-0.010-34.552zM813.867 695.090l-187.594-187.584c-0.998-0.998-0.998-2.607 0-3.605 0.499-0.499 1.141-0.743 1.802-0.743s1.303 0.244 1.802 0.743l189.387 189.377c0.998 0.998 0.998 2.607 0 3.605l-44.154 44.154c-0.998 0.998-2.607 0.998-3.605 0s-0.998-2.607 0-3.605z" />
<glyph unicode="&#xe904;" glyph-name="microphone" d="M372.053 122.539c0 0 0 0 0 0-9.104 0-16.488-7.368-16.512-16.467v-0.002c0.024-9.101 7.408-16.469 16.512-16.469 0 0 0 0 0 0h279.893c0 0 0 0 0 0 9.104 0 16.488 7.368 16.512 16.467v0.002c-0.024 9.101-7.408 16.469-16.512 16.469 0 0 0 0 0 0v0zM512 246.187c-8.601 0-15.573-6.972-15.573-15.573v0-124.501c0-8.601 6.972-15.573 15.573-15.573v0c8.601 0 15.573 6.972 15.573 15.573v0 124.501c0 8.601-6.972 15.573-15.573 15.573v0zM294.101 526.293c-8.568-0.024-15.506-6.963-15.531-15.528v-62.295c0.146-128.861 104.568-233.284 233.415-233.429h0.014c128.846 0.146 233.259 104.544 233.429 233.37v62.309c-0.024 8.568-6.963 15.506-15.528 15.531h-0.002c0 0 0 0 0 0-8.586 0-15.549-6.948-15.573-15.528v-62.295c0-0.051 0-0.111 0-0.171 0-111.6-90.47-202.069-202.069-202.069-0.090 0-0.18 0-0.27 0h0.014c-0.076 0-0.166 0-0.256 0-111.6 0-202.069 90.47-202.069 202.069 0 0.090 0 0.18 0 0.27v-0.014 62.208c-0.024 8.583-6.987 15.531-15.573 15.531 0 0 0 0 0 0v0zM512 806.4c-60.101-0.145-108.783-48.827-108.928-108.914v-249.017c0-35.029 13.653-63.232 34.389-81.664 20.736-18.389 47.744-27.307 74.539-27.307s53.803 8.917 74.539 27.307c20.693 18.432 34.389 46.635 34.389 81.664v249.003c-0.145 60.101-48.827 108.783-108.914 108.928h-0.014zM512 775.253c43.179 0 77.824-34.645 77.824-77.781v-249.003c0-27.264-9.643-45.739-23.979-58.453-14.293-12.672-33.963-19.371-53.845-19.371s-39.552 6.699-53.845 19.371c-14.336 12.715-23.979 31.189-23.979 58.453v249.003c0 43.136 34.645 77.781 77.824 77.781z" />
<glyph unicode="&#xe905;" glyph-name="microphone-off" d="M387.371 120.747c-0.013 0-0.028 0-0.043 0-8.601 0-15.573-6.972-15.573-15.573 0 0 0 0 0 0v0c0 0 0 0 0 0 0-8.601 6.972-15.573 15.573-15.573 0.015 0 0.030 0 0.045 0h249.257c0.013 0 0.028 0 0.043 0 8.601 0 15.573 6.972 15.573 15.573 0 0 0 0 0 0v0c0 0 0 0 0 0 0 8.601-6.972 15.573-15.573 15.573-0.015 0-0.030 0-0.045 0h0.002zM293.845 525.867c-8.601 0-15.573-6.972-15.573-15.573v0-62.293c-0.683-104.405 62.891-183.979 144.64-217.685s182.955-22.101 256 52.48c2.753 2.807 4.452 6.656 4.452 10.901 0 4.352-1.785 8.287-4.663 11.112l-0.002 0.002c-2.809 2.765-6.666 4.473-10.923 4.473-4.341 0-8.267-1.776-11.092-4.641l-0.002-0.002c-64.256-65.579-150.699-74.923-221.909-45.525-71.253 29.355-125.995 96.939-125.312 188.715 0 0.019 0 0.041 0 0.064s0 0.045 0 0.067v-0.003 62.293c0 0.013 0 0.028 0 0.043 0 8.601-6.972 15.573-15.573 15.573-0.015 0-0.030 0-0.045 0h0.002zM730.155 525.867c-0.013 0-0.028 0-0.043 0-8.601 0-15.573-6.972-15.573-15.573 0 0 0 0 0 0v0-62.293c0-11.947-1.024-23.893-3.157-35.627-0.158-0.832-0.248-1.789-0.248-2.768 0-7.618 5.469-13.958 12.696-15.308l0.096-0.015c0.842-0.162 1.811-0.254 2.802-0.254 7.635 0 13.987 5.495 15.317 12.745l0.015 0.096c2.432 13.568 3.627 27.307 3.669 41.088v62.293c0 0.013 0 0.028 0 0.043 0 8.601-6.972 15.573-15.573 15.573 0 0 0 0 0 0v0zM522.965 805.845c-50.133 5.077-105.131-24.192-117.845-86.784-0.202-0.94-0.317-2.020-0.317-3.127 0-7.505 5.309-13.77 12.376-15.245l0.101-0.018c0.94-0.202 2.020-0.317 3.127-0.317 7.505 0 13.77 5.309 15.245 12.376l0.018 0.101c9.728 47.957 47.36 65.749 84.181 62.037 36.864-3.712 70.101-28.715 70.059-77.611v-166.4c0-8.601 6.972-15.573 15.573-15.573v0c8.601 0 15.573 6.972 15.573 15.573v166.4c0.085 63.915-48 103.509-98.133 108.587zM418.517 557.013c-8.601 0-15.573-6.972-15.573-15.573v0-93.44c-0.001-0.13-0.001-0.285-0.001-0.439 0-45.029 27.473-83.641 66.571-99.989l0.715-0.265c12.383-5.339 26.799-8.445 41.941-8.445 30.053 0 57.249 12.233 76.88 31.991l0.006 0.006c2.829 2.82 4.579 6.72 4.579 11.029 0 4.288-1.733 8.171-4.537 10.987l0.001-0.001c-2.822 2.841-6.731 4.6-11.051 4.6-4.277 0-8.152-1.724-10.966-4.516l0.001 0.001c-25.003-25.003-57.6-28.16-84.907-16.896-27.307 11.307-48.043 36.565-48.085 71.893v93.483c0 8.601-6.972 15.573-15.573 15.573v0zM168.491 806.315c-4.034-0.201-7.635-1.907-10.282-4.565l-0.001-0.001c-2.816-2.818-4.557-6.71-4.557-11.008s1.741-8.19 4.557-11.008l685.568-685.568c2.818-2.816 6.71-4.557 11.008-4.557s8.19 1.741 11.008 4.557v0c2.816 2.818 4.557 6.71 4.557 11.008s-1.741 8.19-4.557 11.008l-685.568 685.568c-2.82 2.83-6.721 4.581-11.032 4.581-0.247 0-0.492-0.006-0.736-0.017l0.035 0.001zM512 245.419c-8.601 0-15.573-6.972-15.573-15.573v0-124.672c0-8.601 6.972-15.573 15.573-15.573v0c8.601 0 15.573 6.972 15.573 15.573v0 124.672c0 8.601-6.972 15.573-15.573 15.573v0z" />
<glyph unicode="&#xe906;" glyph-name="pan-tool" d="M510.799 755.042c-2.236-0.248-4.205-1.232-5.697-2.699l-86.335-86.335c-1.804-1.747-2.925-4.191-2.925-6.897 0-5.299 4.295-9.594 9.594-9.594 0.079 0 0.158 0.001 0.237 0.003h172.661c0.067-0.002 0.146-0.003 0.226-0.003 5.299 0 9.594 4.295 9.594 9.594 0 2.706-1.12 5.15-2.922 6.894l-86.339 86.339c-1.734 1.725-4.125 2.791-6.764 2.791-0.469 0-0.93-0.034-1.381-0.099l0.052 0.006zM511.998 731.659l62.954-62.954h-125.907zM299.754 543.997c-2.236-0.248-4.205-1.232-5.697-2.699l-86.335-86.335c-1.803-1.746-2.923-4.19-2.923-6.895s1.119-5.148 2.92-6.892l0.003-0.002 86.336-86.336c1.747-1.804 4.191-2.925 6.897-2.925 5.299 0 9.594 4.295 9.594 9.594 0 0.079-0.001 0.158-0.003 0.237v-0.012 172.673c0 0.022 0 0.048 0 0.074 0 5.299-4.295 9.594-9.594 9.594-0.422 0-0.839-0.027-1.247-0.080l0.048 0.005zM721.843 543.997c-4.757-0.617-8.394-4.643-8.394-9.519 0-0.026 0-0.052 0-0.078v0.004-172.673c-0.002-0.067-0.003-0.146-0.003-0.226 0-5.299 4.295-9.594 9.594-9.594 2.706 0 5.15 1.12 6.894 2.922l86.339 86.339c1.803 1.746 2.923 4.19 2.923 6.895s-1.119 5.148-2.92 6.892l-0.003 0.002-86.336 86.336c-1.734 1.725-4.125 2.791-6.764 2.791-0.469 0-0.93-0.034-1.381-0.099l0.052 0.006zM291.361 511.022v-125.907l-62.954 62.954zM732.636 511.022l62.954-62.954-62.954-62.954zM511.998 505.626c-31.675 0-57.558-25.883-57.558-57.558s25.883-57.558 57.558-57.558c31.675 0 57.558 25.884 57.558 57.558s-25.883 57.558-57.558 57.558zM511.998 486.44c21.306 0 38.372-17.066 38.372-38.372s-17.066-38.372-38.372-38.372c-21.306 0-38.372 17.066-38.372 38.372s17.066 38.372 38.372 38.372zM423.863 246.616c-4.634-0.733-8.135-4.699-8.135-9.482 0-2.761 1.167-5.25 3.034-7.001l86.341-86.341c1.746-1.803 4.19-2.923 6.895-2.923s5.148 1.119 6.892 2.92l0.002 0.003 86.336 86.336c1.804 1.747 2.925 4.191 2.925 6.897 0 5.299-4.295 9.594-9.594 9.594-0.079 0-0.158-0.001-0.237-0.003h-172.661c-0.134 0.007-0.292 0.011-0.45 0.011s-0.315-0.004-0.472-0.011l0.022 0.001c-0.134 0.007-0.292 0.011-0.45 0.011s-0.315-0.004-0.472-0.011l0.022 0.001zM449.044 227.431h125.907l-62.954-62.954z" />
<glyph unicode="&#xe907;" glyph-name="line-tool" d="M174.275 89.602c-5.293 0-10.576 2.016-14.619 6.058-8.074 8.064-8.074 21.163 0 29.238l675.452 675.442c8.074 8.074 21.163 8.074 29.238 0 8.074-8.064 8.074-21.163 0-29.238l-675.452-675.442c-4.042-4.042-9.325-6.058-14.619-6.058z" />
<glyph unicode="&#xe908;" glyph-name="pen-tool" d="M489.722 505.21l79.479-79.479c-48.305-48.312-273.244-273.251-285.817-285.824-14.092-14.092-20.379-6.186-20.379-6.186l-65.293 65.293s-5.842 8.344 6.186 20.379c10.745 10.738 237.318 237.311 285.824 285.817zM857.24 709.247c13.942 13.942 21.296 60.304-1.197 82.79-22.493 22.493-68.849 15.153-82.805 1.204l-0.774-0.774 83.995-83.995zM755.418 784.403l-244.027-244.027c-6.014-6.014-9.655-13.49-10.981-21.275l82.69-82.69c7.792 1.333 15.261 4.967 21.282 10.981l244.013 244.027zM154.346 95.731s-1.634-3.892-0.065-5.455c1.563-1.563 5.448 0.072 5.448 0.072l24.758 11.619-18.515 18.515zM169.234 147.778c-6.487-13.196-1.563-19.074-1.563-19.074l25.031-25.031s5.842-3.921 18.536 2.1c12.695 6.035 42.542 24.35 42.542 24.35l-59.659 59.659c0 0.007-18.4-28.808-24.887-42.004zM793.796 614.271s65.214-2.351-175.007-175.014c0 0 15.633-9.971 30.256-1.161 14.63 8.802 252.708 145.453 210.624 242.049z" />
<glyph unicode="&#xe909;" glyph-name="prev-slide-tool" d="M643.66 755.2c-0.001 0-0.001 0-0.002 0-12.122 0-23.096-4.915-31.038-12.86l-263.3-263.3c-7.946-7.943-12.86-18.918-12.86-31.040s4.915-23.097 12.86-31.040l263.3-263.3c7.942-7.941 18.912-12.852 31.030-12.852s23.088 4.911 31.030 12.852v0c7.941 7.942 12.852 18.912 12.852 31.030s-4.911 23.088-12.852 31.030l-232.26 232.28 232.26 232.28c7.941 7.942 12.852 18.912 12.852 31.030s-4.911 23.088-12.852 31.030v0c-7.938 7.941-18.905 12.855-31.019 12.86h-0.001z" />
<glyph unicode="&#xe90a;" glyph-name="pointer-tool" d="M512 713.976c-146.508 0-265.976-119.468-265.976-265.976s119.468-265.976 265.976-265.976c146.508 0 265.976 119.468 265.976 265.976s-119.468 265.976-265.976 265.976zM512 646.991c110.298 0 198.991-88.694 198.991-198.991s-88.694-198.991-198.991-198.991c-110.298 0-198.991 88.694-198.991 198.991s88.694 198.991 198.991 198.991zM614.637 448c0-56.685-45.952-102.637-102.637-102.637s-102.637 45.952-102.637 102.637c0 56.685 45.952 102.637 102.637 102.637s102.637-45.952 102.637-102.637zM512 755.197c-169.587 0-307.197-137.61-307.197-307.197s137.61-307.197 307.197-307.197c169.587 0 307.197 137.61 307.197 307.197s-137.61 307.197-307.197 307.197zM512 742.602c162.798 0 294.602-131.804 294.602-294.602s-131.804-294.602-294.602-294.602c-162.798 0-294.602 131.804-294.602 294.602s131.804 294.602 294.602 294.602z" />
<glyph unicode="&#xe90b;" glyph-name="rectangle-tool" d="M163.366 182.862h697.269c5.859 0 9.766 3.906 9.766 9.766v510.744c0 5.859-3.906 9.766-9.766 9.766h-697.269c-5.859 0-9.766-3.906-9.766-9.766v-510.744c0-5.859 3.906-9.766 9.766-9.766zM173.131 693.607h677.737v-491.213h-677.737z" />
<glyph unicode="&#xe90c;" glyph-name="rubber-tool" d="M852.911 543.538c10.804 10.808 17.487 25.736 17.487 42.226s-6.682 31.418-17.487 42.226v0l-160.542 160.9c-10.808 10.804-25.736 17.487-42.226 17.487s-31.418-6.682-42.226-17.487l-436.831-436.472c-10.804-10.808-17.487-25.736-17.487-42.226s6.682-31.418 17.487-42.226v0l160.542-160.9c8.544-8.455 19.635-14.351 32.021-16.435l0.351-0.049c1.374-0.601 2.975-0.952 4.657-0.956h384.751c6.597 0 11.945 5.348 11.945 11.945s-5.348 11.945-11.945 11.945v0h-330.998l23.89 23.89h244.874c6.597 0 11.945 5.348 11.945 11.945s-5.348 11.945-11.945 11.945v0h-220.864l23.89 23.89h196.974c6.597 0 11.945 5.348 11.945 11.945s-5.348 11.945-11.945 11.945v0h-173.084l14.931 14.812zM646.859 743.14c2.165 2.182 5.165 3.533 8.481 3.533s6.316-1.351 8.48-3.533l143.342-143.342c2.182-2.165 3.533-5.165 3.533-8.481s-1.351-6.316-3.533-8.48l-0.001-0.001c-2.165-2.182-5.165-3.533-8.481-3.533s-6.316 1.351-8.48 3.533l-143.342 143.342c-2.182 2.165-3.533 5.165-3.533 8.481s1.351 6.316 3.533 8.48l0.001 0.001zM399.118 124.028c-6.552-6.274-15.457-10.136-25.264-10.136s-18.712 3.862-25.277 10.149l-160.529 160.529c-6.44 6.477-10.421 15.406-10.421 25.264s3.981 18.787 10.422 25.266l-0.002-0.002 108.939 108.461 210.591-210.591z" />
<glyph unicode="&#xe90d;" glyph-name="text-select-tool" d="M153.6 262.621h469.628v370.759h-469.628zM227.752 336.772h49.434v222.455h-49.434v24.717h148.303v-24.717h-49.434v-98.869h123.586v98.869h-49.434v24.717h148.303v-24.717h-49.434v-222.455h49.434v-24.717h-148.303v24.717h49.434v98.869h-123.586v-98.869h49.434v-24.717h-148.303zM845.683 237.903c-27.189 0-49.434 22.246-49.434 49.434h49.434v49.434h-49.434v271.89c0 27.189 22.246 49.434 49.434 49.434 14.83 0 24.717 9.887 24.717 24.717s-9.887 24.717-24.717 24.717c-29.661 0-56.85-12.359-74.152-34.604-17.302 19.774-44.491 34.604-74.152 34.604-14.83 0-24.717-9.887-24.717-24.717s9.887-24.717 24.717-24.717c27.189 0 49.434-22.246 49.434-49.434v-271.89h-49.434v-49.434h49.434c0-27.189-22.246-49.434-49.434-49.434-14.83 0-24.717-9.887-24.717-24.717s9.887-24.717 24.717-24.717c29.661 0 56.85 12.359 74.152 34.604 17.302-19.774 44.491-34.604 74.152-34.604 14.83 0 24.717 9.887 24.717 24.717s-9.887 24.717-24.717 24.717z" />
<glyph unicode="&#xe90e;" glyph-name="zoom-in-tool" d="M861.658 153.807c-14.214-18.458-40.678-21.898-59.114-7.698l-22.422 17.239 51.409 66.799 22.414-17.246c18.45-14.178 21.891-40.657 7.713-59.093zM768.044 172.652l-175.867 135.325c-47.925-45.072-110.903-70.34-178.211-70.34-57.853 0-112.724 18.687-158.678 54.054-55.158 42.427-90.474 103.8-99.456 172.799-9.003 68.992 9.419 137.353 51.868 192.497 49.696 64.605 125.010 101.664 206.61 101.664 57.853 0 112.724-18.701 158.7-54.061 102.459-78.841 129.927-219.455 70.555-329.778l175.896-135.353zM576.644 373.105c68.935 89.607 52.126 218.595-37.467 287.537-36.184 27.841-79.371 42.549-124.888 42.549-64.247 0-123.533-29.159-162.671-80.009-33.381-43.409-47.897-97.22-40.815-151.539 7.075-54.305 34.879-102.61 78.289-136.006 36.17-27.848 79.35-42.549 124.881-42.549 64.247 0.007 123.548 29.167 162.671 80.016zM561.67 527.439h-112.129v112.129h-70.806v-112.129h-112.129v-70.806h112.122v-112.129h70.806v112.129h112.136z" />
<glyph unicode="&#xe90f;" glyph-name="zoom-out-tool" d="M861.658 153.809c-14.214-18.458-40.678-21.891-59.114-7.698l-22.422 17.239 51.409 66.799 22.414-17.239c18.45-14.185 21.891-40.664 7.713-59.1zM768.044 172.654l-175.867 135.325c-47.925-45.072-110.903-70.34-178.204-70.34-57.853 0-112.724 18.687-158.685 54.054-55.158 42.427-90.474 103.8-99.456 172.799-9.003 68.992 9.419 137.353 51.86 192.497 49.696 64.605 125.010 101.657 206.61 101.657 57.853 0 112.731-18.694 158.7-54.061 102.459-78.841 129.927-219.455 70.555-329.785l175.896-135.346zM576.644 373.107c68.935 89.607 52.126 218.595-37.467 287.537-36.184 27.841-79.371 42.549-124.888 42.549-64.247 0-123.533-29.167-162.671-80.009-33.381-43.409-47.897-97.22-40.815-151.539 7.075-54.305 34.879-102.61 78.289-136.006 36.17-27.848 79.35-42.556 124.874-42.556 64.254 0.007 123.555 29.174 162.678 80.024zM266.606 456.636h295.064v70.806h-295.064z" />
<glyph unicode="&#xe910;" glyph-name="camera" d="M512 557.099c-77.397-0.145-140.1-62.849-140.245-140.231v-0.014c0.145-77.397 62.849-140.1 140.231-140.245h0.014c77.397 0.145 140.1 62.849 140.245 140.231v0.014c-0.145 77.397-62.849 140.1-140.231 140.245h-0.014zM512 525.952c0.076 0 0.166 0 0.256 0 60.112 0 108.843-48.731 108.843-108.843 0-0.090 0-0.18 0-0.27v0.014c0-0.076 0-0.166 0-0.256 0-60.112-48.731-108.843-108.843-108.843-0.090 0-0.18 0-0.27 0h0.014c-0.076 0-0.166 0-0.256 0-60.112 0-108.843 48.731-108.843 108.843 0 0.090 0 0.18 0 0.27v-0.014c0 0.063 0 0.138 0 0.214 0 60.112 48.731 108.843 108.843 108.843 0.090 0 0.18 0 0.27 0h-0.014zM418.517 744.021c-5.39 0-10.14-2.738-12.935-6.899l-0.035-0.056-57.728-86.485h-116.309c-42.97-0.145-77.764-34.94-77.909-77.895v-342.841c0-42.837 35.072-77.909 77.909-77.909h560.981c42.97 0.145 77.764 34.94 77.909 77.895v342.841c-0.145 42.97-34.94 77.764-77.895 77.909h-116.323l-57.728 86.528c-2.831 4.217-7.581 6.955-12.971 6.955v0zM426.837 712.875h170.325l57.685-86.571c2.831-4.217 7.581-6.955 12.971-6.955h124.672c26.027 0 46.763-20.736 46.763-46.72v-342.827c0-0.076 0.001-0.166 0.001-0.257 0-25.685-20.822-46.507-46.507-46.507-0.090 0-0.18 0-0.271 0.001h-560.967c-0.076 0-0.166-0.001-0.257-0.001-25.685 0-46.507 20.822-46.507 46.507 0 0.090 0 0.18 0.001 0.271v-0.014 342.869c0 26.027 20.779 46.72 46.763 46.72h124.672c5.39 0 10.14 2.738 12.935 6.899l0.035 0.056z" />
<glyph unicode="&#xe911;" glyph-name="camera-off" d="M418.517 744.107c-0.013 0-0.028 0-0.043 0-8.601 0-15.573-6.972-15.573-15.573 0-0.015 0-0.030 0-0.045v0.002c0 0 0 0 0 0 0-8.601 6.972-15.573 15.573-15.573 0.015 0 0.030 0 0.045 0h178.643l57.685-86.571c2.831-4.217 7.581-6.955 12.971-6.955h124.672c26.027 0 46.763-20.736 46.763-46.72v-291.072c0-0.013 0-0.028 0-0.043 0-8.601 6.972-15.573 15.573-15.573 0 0 0 0 0 0v0c0 0 0 0 0 0 8.601 0 15.573 6.972 15.573 15.573 0 0.015 0 0.030 0 0.045v-0.002 291.072c-0.145 42.97-34.94 77.764-77.895 77.909h-116.323l-57.728 86.528c-2.831 4.217-7.581 6.955-12.971 6.955v0zM231.509 650.539c-42.955-0.145-77.74-34.915-77.909-77.85v-342.843c0-42.837 35.072-77.909 77.909-77.909h560.981c8.601 0 15.573 6.972 15.573 15.573v0c0 8.601-6.972 15.573-15.573 15.573v0h-560.981c-0.076 0-0.166-0.001-0.257-0.001-25.685 0-46.507 20.822-46.507 46.507 0 0.090 0 0.18 0.001 0.271v-0.014 342.827c0 26.027 20.779 46.72 46.763 46.72h93.483c0.013 0 0.028 0 0.043 0 8.601 0 15.573 6.972 15.573 15.573 0 0.015 0 0.030 0 0.045v-0.002c0 0 0 0 0 0 0 8.601-6.972 15.573-15.573 15.573-0.015 0-0.030 0-0.045 0h0.002zM441.259 534.571c-0.112 0.003-0.245 0.005-0.378 0.005-3.268 0-6.301-1.007-8.806-2.727l0.053 0.034c-72.192-49.323-81.835-153.003-19.968-214.869s165.547-52.224 214.955 19.968c1.704 2.461 2.722 5.509 2.722 8.796 0 5.332-2.679 10.038-6.765 12.845l-0.053 0.034c-2.461 1.704-5.509 2.722-8.796 2.722-5.332 0-10.038-2.679-12.845-6.765l-0.034-0.053c-19.841-28.92-52.715-47.645-89.963-47.645-30.162 0-57.455 12.278-77.156 32.108l-0.006 0.006c-19.851 19.709-32.14 47.013-32.14 77.187 0 37.259 18.736 70.142 47.3 89.741l0.37 0.24c4.122 2.843 6.789 7.54 6.789 12.859 0 3.295-1.023 6.351-2.769 8.867l0.034-0.051c-2.793 4.020-7.352 6.643-12.529 6.741h-0.015zM168.448 806.4c-4.034-0.201-7.635-1.907-10.282-4.565l-0.001-0.001c-2.829-2.82-4.579-6.72-4.579-11.029s1.75-8.209 4.578-11.029v0l685.653-685.653c2.818-2.816 6.71-4.557 11.008-4.557s8.19 1.741 11.008 4.557v0c2.829 2.82 4.579 6.72 4.579 11.029s-1.75 8.209-4.578 11.029v0l-685.653 685.653c-2.82 2.83-6.721 4.581-11.032 4.581-0.247 0-0.492-0.006-0.736-0.017l0.035 0.001z" />
<glyph unicode="&#xe912;" glyph-name="pen-cursor" d="M513.022 816.64c-203.473 0-368.64-165.167-368.64-368.64s165.167-368.64 368.64-368.64c203.473 0 368.64 165.167 368.64 368.64s-165.167 368.64-368.64 368.64zM513.022 796.16c192.405 0 348.16-155.755 348.16-348.16s-155.755-348.16-348.16-348.16c-192.405 0-348.16 155.755-348.16 348.16s155.755 348.16 348.16 348.16zM513.022 735.62c-158.669 0-287.62-128.951-287.62-287.62s128.951-287.62 287.62-287.62c158.669 0 287.62 128.951 287.62 287.62s-128.951 287.62-287.62 287.62zM513.022 704.9c142.067 0 256.9-114.833 256.9-256.9s-114.833-256.9-256.9-256.9c-142.067 0-256.9 114.833-256.9 256.9s114.833 256.9 256.9 256.9z" />
<glyph unicode="&#xe913;" glyph-name="next-slide-tool" d="M380.34 755.2c-12.115-0.005-23.082-4.919-31.020-12.86v0c-7.941-7.942-12.852-18.912-12.852-31.030s4.911-23.088 12.852-31.030l232.28-232.28-232.28-232.28c-7.941-7.942-12.852-18.912-12.852-31.030s4.911-23.088 12.852-31.030v0c7.942-7.941 18.912-12.852 31.030-12.852s23.088 4.911 31.030 12.852l263.3 263.3c7.946 7.943 12.86 18.918 12.86 31.040s-4.915 23.097-12.86 31.040l-263.3 263.3c-7.942 7.945-18.916 12.86-31.038 12.86-0.001 0-0.001 0-0.002 0v0z" />
</font>
</defs>
</svg>
